<svg width="80" height="60" viewBox="0 0 80 60" fill="none" xmlns="http://www.w3.org/2000/svg">
<g clip-path="url(#clip0_26_189)">
<path d="M0 0H80V60H0V0Z" fill="#8D1B3D"/>
<path d="M0 0V60H19.8L32.025 56.6625L19.8 53.3375L32.0125 50L19.8 46.6625L32.0125 43.3375L19.8 40L32.025 36.6625L19.8 33.3375L32.0125 30L19.8 26.6625L32.0125 23.3375L19.8 20L32.025 16.6625L19.8 13.3375L32.0125 10L19.8 6.6625L32.025 3.3375L19.7875 0H0Z" fill="white"/>
<g clip-path="url(#clip1_26_189)">
<path d="M40 0H80V60H40V0Z" fill="white"/>
<path d="M0 0H40V60H0V0Z" fill="#006233"/>
<path d="M53 22.5C51.349 19.6404 48.8006 17.4054 45.7499 16.1418C42.6992 14.8782 39.3169 14.6565 36.1274 15.5111C32.9379 16.3657 30.1195 18.2489 28.1093 20.8686C26.0992 23.4882 25.0096 26.698 25.0096 30C25.0096 33.302 26.0992 36.5118 28.1093 39.1314C30.1195 41.7511 32.9379 43.6343 36.1274 44.4889C39.3169 45.3435 42.6992 45.1218 45.7499 43.8582C48.8006 42.5946 51.349 40.3596 53 37.5C51.4462 39.4408 49.3278 40.851 46.9378 41.5358C44.5478 42.2206 42.0041 42.1462 39.6582 41.3228C37.3124 40.4994 35.2801 38.9677 33.8424 36.9393C32.4047 34.911 31.6325 32.4862 31.6325 30C31.6325 27.5138 32.4047 25.089 33.8424 23.0607C35.2801 21.0323 37.3124 19.5006 39.6582 18.6772C42.0041 17.8538 44.5478 17.7794 46.9378 18.4642C49.3278 19.149 51.4462 20.5592 53 22.5ZM53.5 30L40 25.6L48.4 37.1V22.9L40 34.4L53.5 30Z" fill="#D21034"/>
</g>
</g>
<defs>
<clipPath id="clip0_26_189">
<rect width="80" height="60" fill="white"/>
</clipPath>
<clipPath id="clip1_26_189">
<rect width="80" height="60" fill="white"/>
</clipPath>
</defs>
</svg>
