<svg width="80" height="60" viewBox="0 0 80 60" fill="none" xmlns="http://www.w3.org/2000/svg">
<g clip-path="url(#clip0_26_457)">
<path d="M0 40H80V60H0V40Z" fill="#000001"/>
<path d="M0 20H80V40H0V20Z" fill="white"/>
<path d="M0 0H80V20H0V0Z" fill="#CE1126"/>
<path d="M40.0799 30.24L46.9299 36.6L46.4399 25.05C46.3699 23.3 44.8499 23.7 43.7399 24.33C42.6299 25.05 41.3399 25.05 39.9999 24.58C38.6499 25.05 37.3699 25.05 36.2599 24.33C35.1599 23.7 33.6299 23.3 33.5599 25.05L33.0699 36.6L40.0799 30.24Z" fill="white" stroke="#C09300" stroke-width="0.13" stroke-linejoin="round"/>
<path d="M34.3499 24.65L33.8699 35.88L33.0699 36.6L33.5599 25.05C33.7962 24.8688 34.0641 24.7332 34.3499 24.65ZM35.3099 25.45L34.9099 34.85L34.1099 35.67L34.5899 24.82C34.7499 24.98 35.2199 25.37 35.3099 25.45ZM36.1799 26.17L35.8699 34.01L35.2199 34.64L35.6199 25.7C35.7799 25.85 36.0999 26.08 36.1799 26.17ZM37.1299 26.57L36.8199 33.25L36.1899 33.76L36.4999 26.33C36.6599 26.4 36.9699 26.57 37.1299 26.57ZM38.0099 26.57L37.7799 32.14L37.1299 32.77L37.3799 26.64C37.5299 26.64 37.9399 26.64 38.0099 26.57Z" fill="#C09300"/>
<path d="M45.6499 24.65L46.1299 35.88L46.9299 36.6L46.4399 25.05C46.2037 24.8688 45.9358 24.7332 45.6499 24.65ZM44.6899 25.45L45.0899 34.85L45.8899 35.67L45.4099 24.82C45.2499 24.98 44.7799 25.37 44.6899 25.45ZM43.8199 26.17L44.1299 34.01L44.7799 34.64L44.3799 25.7C44.2199 25.85 43.8999 26.08 43.8199 26.17ZM42.8699 26.57L43.1799 33.25L43.8099 33.76L43.4999 26.33C43.3399 26.4 43.0299 26.57 42.8699 26.57ZM41.9899 26.57L42.2199 32.14L42.8699 32.77L42.6199 26.64C42.4699 26.64 42.0599 26.64 41.9899 26.57Z" fill="#C09300"/>
<path d="M40.32 31.5L41.28 35.88L40.96 36.2L40.63 35.95L40.09 32.05L40.32 35.95L40 36.35L39.69 35.95L39.92 32.05L39.37 35.95L39.04 36.2L38.72 35.88L39.68 31.51H40.32V31.5Z" fill="#C09300" stroke="#C09300" stroke-width="0.11"/>
<path d="M37.8499 29.58L35.9399 36.35L38.5699 36.75L39.6799 31.66L37.8499 29.58Z" fill="white" stroke="#C09300" stroke-width="0.12" stroke-linejoin="round"/>
<path d="M37.22 31.9L37.45 32.45L38.69 31.27" stroke="#C09300" stroke-width="0.13" stroke-linejoin="round"/>
<path d="M38.0799 30.5L38.3399 32.93L39.1299 31.89M38.8099 32.29L39.2399 33.79M39.4099 33.24L38.5399 34.56M38.8099 35.88L38.5299 34.56M38.5299 34.56L38.2899 33.22L37.6999 34.01L37.4499 33.1L36.6299 33.94L37.0399 35.46L37.6199 34.52L37.9299 35.48L38.5299 34.56Z" stroke="#C09300" stroke-width="0.13" stroke-linejoin="round"/>
<path d="M36.5 36.2L37.03 35.45L37.37 36.6L37.85 35.8L38.16 36.76" stroke="#C09300" stroke-width="0.13" stroke-linejoin="round"/>
<path d="M42.1499 29.58L44.0599 36.35L41.4299 36.75L40.3199 31.66L42.1499 29.58Z" fill="white" stroke="#C09300" stroke-width="0.12" stroke-linejoin="round"/>
<path d="M42.7799 31.9L42.5499 32.45L41.3099 31.27" stroke="#C09300" stroke-width="0.13" stroke-linejoin="round"/>
<path d="M41.92 30.5L41.66 32.93L40.87 31.89M41.19 32.29L40.76 33.79M40.59 33.24L41.46 34.56M41.19 35.88L41.47 34.56M41.47 34.56L41.71 33.22L42.3 34.01L42.55 33.1L43.37 33.94L42.96 35.46L42.38 34.52L42.07 35.48L41.47 34.56Z" stroke="#C09300" stroke-width="0.13" stroke-linejoin="round"/>
<path d="M43.4999 36.2L42.9699 35.45L42.6299 36.6L42.1499 35.8L41.8399 36.76" stroke="#C09300" stroke-width="0.13" stroke-linejoin="round"/>
<path d="M40 39.38C42 39.38 43.9 39.22 45.02 38.91C45.49 38.82 45.49 38.58 45.49 38.26C45.97 38.1 45.73 37.54 46.06 37.54C45.72 37.64 45.66 36.99 45.26 37.07C45.26 36.51 44.69 36.44 44.22 36.6C43.27 36.91 41.59 36.99 40 36.99C38.4 36.91 36.7399 36.91 35.78 36.59C35.3099 36.44 34.75 36.51 34.75 37.07C34.35 36.99 34.28 37.63 33.95 37.54C34.28 37.54 34.03 38.11 34.51 38.26C34.51 38.58 34.51 38.82 34.99 38.91C36.09 39.22 38.01 39.38 40 39.38Z" fill="white" stroke="#C09300" stroke-width="0.24" stroke-linecap="round" stroke-linejoin="round"/>
<path d="M37.2899 36.35C37.9299 36.44 38.6499 36.51 39.2099 36.44C39.5299 36.44 39.7599 36.99 39.1199 37.07C38.5699 37.14 37.6899 37.07 37.2199 36.99C36.6014 36.8817 35.9876 36.7483 35.3799 36.59C34.8199 36.35 35.2199 35.89 35.5399 35.95C36.1108 36.133 36.6963 36.2669 37.2899 36.35ZM42.7099 36.35C42.0699 36.44 41.3499 36.51 40.8099 36.44C40.4699 36.44 40.2399 36.99 40.8799 37.07C41.4399 37.14 42.3099 37.07 42.7799 36.99C43.1799 36.91 44.0599 36.76 44.6199 36.59C45.1799 36.35 44.7799 35.89 44.4599 35.95C43.8891 36.133 43.3036 36.2669 42.7099 36.35Z" fill="white" stroke="#C09300" stroke-width="0.13" stroke-linecap="round" stroke-linejoin="round"/>
<path d="M35.2999 36.04C34.8199 35.95 34.5999 36.51 34.7499 36.83C34.8199 36.67 35.1499 36.67 35.2199 36.51C35.3099 36.27 35.1499 36.27 35.3099 36.04H35.2999ZM37.2199 37.51C37.2199 37.19 37.5299 37.23 37.5299 36.91C37.5299 36.76 37.4499 36.51 37.2899 36.51C37.2066 36.5148 37.128 36.55 37.069 36.609C37.01 36.668 36.9747 36.7467 36.9699 36.83C36.8999 37.14 37.2199 37.19 37.2199 37.51ZM39.4899 36.6C39.9599 36.6 39.9099 37.23 39.6899 37.55C39.6899 37.32 39.2899 37.23 39.2899 37.07C39.2899 36.83 39.6499 36.83 39.4899 36.6ZM44.6899 36.04C45.1799 35.95 45.4099 36.51 45.2499 36.83C45.1799 36.67 44.8499 36.67 44.7799 36.51C44.6899 36.27 44.8499 36.27 44.6899 36.04ZM42.7999 37.5C42.7999 37.18 42.4799 37.22 42.4799 36.9C42.4799 36.75 42.5599 36.5 42.7199 36.5C42.8033 36.5048 42.8819 36.54 42.9409 36.599C42.9999 36.658 43.0352 36.7367 43.0399 36.82C43.1099 37.13 42.7899 37.18 42.7899 37.5H42.7999ZM40.4999 36.6C40.0299 36.6 40.0799 37.23 40.2999 37.55C40.2999 37.32 40.6999 37.23 40.6999 37.07C40.6999 36.83 40.3399 36.83 40.4999 36.6Z" fill="white" stroke="#C09300" stroke-width="0.13" stroke-linecap="round" stroke-linejoin="round"/>
<path d="M35.47 36.2C35.63 36.2 35.87 36.27 35.94 36.36L35.47 36.2ZM36.26 36.44C36.34 36.44 36.66 36.51 36.81 36.6L36.26 36.44ZM39.12 36.76C38.97 36.76 38.65 36.76 38.57 36.83L39.12 36.75V36.76ZM38.25 36.76C38.16 36.67 37.85 36.67 37.69 36.76H38.25ZM44.53 36.2C44.3603 36.2022 44.1957 36.2582 44.06 36.36L44.53 36.2ZM43.75 36.44C43.65 36.44 43.35 36.51 43.19 36.6L43.75 36.44ZM40.88 36.76C41.03 36.76 41.35 36.76 41.44 36.83L40.88 36.75V36.76ZM41.75 36.76C41.84 36.67 42.15 36.67 42.31 36.76H41.75Z" fill="white" stroke="#C09300" stroke-width="0.09" stroke-linecap="round" stroke-linejoin="round"/>
<path d="M35.33 37.46C35.2767 37.44 35.2567 37.4067 35.27 37.36C35.29 37.2933 35.3233 37.2667 35.37 37.28C35.41 37.28 35.46 37.34 35.46 37.36L35.42 37.43L35.4 37.44C35.3933 37.46 35.37 37.4667 35.33 37.46ZM40.83 37.85C40.8033 37.8367 40.7833 37.8133 40.77 37.78C40.77 37.74 40.83 37.68 40.87 37.68L40.95 37.72C40.9833 37.76 40.98 37.8 40.94 37.84C40.9067 37.86 40.87 37.86 40.83 37.84V37.85ZM40.86 38.1C40.8267 38.0867 40.8067 38.06 40.8 38.02C40.7933 37.98 40.81 37.95 40.85 37.93L40.89 37.91L40.93 37.93C40.97 37.9433 40.9933 37.97 41 38.01C41 38.0433 40.9767 38.07 40.93 38.09C40.9033 38.11 40.88 38.11 40.86 38.09V38.1Z" fill="#C09300"/>
<path d="M35.78 37C35.7333 37.0067 35.6933 37.0267 35.66 37.06C35.6 37.07 35.52 37.11 35.46 37.06C35.4 37.05 35.32 37.06 35.31 37.14C35.32 37.21 35.41 37.24 35.47 37.2C35.51 37.15 35.62 37.11 35.64 37.2C35.59 37.28 35.6 37.37 35.56 37.44C35.5533 37.4867 35.5367 37.53 35.51 37.57C35.4567 37.57 35.41 37.58 35.37 37.6C35.3389 37.6 35.3083 37.6072 35.2806 37.6211C35.2528 37.635 35.2286 37.6552 35.21 37.68C35.1633 37.74 35.1333 37.8067 35.12 37.88C35.13 37.94 35.22 37.96 35.28 37.97L35.48 38.03L35.8 38.12C35.96 38.16 36.12 38.1967 36.28 38.23L36.33 38.24C36.4 38.26 36.43 38.19 36.43 38.14L36.53 37.78C36.55 37.73 36.58 37.63 36.49 37.65C36.4433 37.69 36.39 37.7167 36.33 37.73C36.24 37.73 36.29 37.83 36.33 37.86C36.33 37.9267 36.3133 37.9867 36.28 38.04C36.22 38.06 36.16 38.0533 36.1 38.02C36.05 38.02 35.93 37.99 35.98 37.92L36.03 37.74C36.05 37.6733 36.0667 37.6067 36.08 37.54C36.04 37.47 35.98 37.57 35.93 37.58C35.88 37.59 35.77 37.61 35.83 37.68C35.89 37.72 35.85 37.79 35.83 37.85C35.83 37.92 35.75 37.95 35.69 37.92C35.63 37.92 35.54 37.87 35.59 37.81L35.64 37.63L35.71 37.43C35.71 37.3633 35.73 37.3033 35.77 37.25C35.77 37.18 35.82 37.12 35.82 37.05C35.82 37.0233 35.8067 37.01 35.78 37.01V37ZM35.41 37.73H35.44C35.46 37.75 35.46 37.77 35.44 37.79L35.41 37.81C35.3633 37.81 35.3433 37.8 35.35 37.78C35.35 37.7733 35.36 37.7633 35.38 37.75L35.41 37.73ZM35.31 38.23C35.2633 38.1967 35.2733 38.1533 35.34 38.1C35.3667 38.08 35.3967 38.0833 35.43 38.11C35.49 38.15 35.49 38.1933 35.43 38.24C35.4167 38.26 35.4 38.2667 35.38 38.26C35.36 38.2533 35.3367 38.2467 35.31 38.24V38.23ZM35.61 38.33C35.589 38.3212 35.5715 38.3056 35.5606 38.2856C35.5497 38.2656 35.546 38.2424 35.55 38.22C35.5567 38.18 35.5867 38.1633 35.64 38.17C35.7 38.1633 35.73 38.1867 35.73 38.24C35.73 38.2733 35.72 38.2967 35.7 38.31L35.61 38.33ZM44.53 38.33C44.51 38.3233 44.5 38.3067 44.5 38.28C44.5 38.24 44.5267 38.21 44.58 38.19C44.64 38.1567 44.68 38.1633 44.7 38.21C44.7333 38.2633 44.73 38.3033 44.69 38.33C44.6767 38.3567 44.65 38.3667 44.61 38.36C44.5633 38.36 44.5367 38.3533 44.53 38.34V38.33ZM36.03 38.45C35.99 38.4433 35.97 38.4167 35.97 38.37C35.97 38.3433 35.9767 38.3233 35.99 38.31L36.05 38.29L36.11 38.3C36.1633 38.34 36.1733 38.38 36.14 38.42C36.1067 38.46 36.0667 38.47 36.02 38.45H36.03ZM38.21 38.55L38.19 38.52C38.19 38.46 38.1967 38.4033 38.21 38.35C38.21 38.3033 38.2167 38.2533 38.23 38.2L38.27 37.92C38.27 37.8667 38.2767 37.82 38.29 37.78C38.29 37.7 38.2967 37.6267 38.31 37.56C38.31 37.53 38.34 37.46 38.37 37.5C38.41 37.5533 38.4567 37.6033 38.51 37.65C38.55 37.68 38.51 37.72 38.48 37.73C38.44 37.75 38.4233 37.7833 38.43 37.83L38.41 37.95C38.41 38.0167 38.4033 38.0833 38.39 38.15L38.38 38.33L38.36 38.45C38.3667 38.4967 38.3533 38.5333 38.32 38.56C38.28 38.58 38.2467 38.5767 38.22 38.55H38.21ZM41.18 37.57L41.05 37.69C40.99 37.74 41.1 37.76 41.11 37.8C41.13 37.86 41.1367 37.92 41.13 37.98C41.15 38.04 41.1567 38.0967 41.15 38.15C41.15 38.22 41.07 38.2 41.03 38.24C40.99 38.2667 40.9567 38.3 40.93 38.34L40.89 38.5C40.89 38.55 40.86 38.6 40.89 38.64L40.9 38.66H40.95L41.1 38.65C41.2267 38.6367 41.35 38.6267 41.47 38.62L41.69 38.6C41.75 38.61 41.78 38.55 41.78 38.5C41.74 38.43 41.77 38.36 41.74 38.3C41.7267 38.22 41.72 38.1467 41.72 38.08C41.72 38.02 41.65 38 41.62 38.04C41.5733 38.0667 41.5333 38.0967 41.5 38.13C41.47 38.19 41.56 38.19 41.58 38.23L41.59 38.38C41.6 38.44 41.54 38.44 41.49 38.45C41.43 38.4767 41.38 38.4667 41.34 38.42C41.3267 38.3733 41.32 38.3233 41.32 38.27C41.3133 38.1767 41.3033 38.0867 41.29 38C41.2767 37.9 41.2667 37.7933 41.26 37.68C41.26 37.63 41.25 37.56 41.18 37.57ZM41.12 38.39H41.15V38.47L41.12 38.48L41.08 38.49H41.06C41.04 38.47 41.0433 38.4433 41.07 38.41L41.12 38.39ZM38.12 37.47C38.09 37.47 38.04 37.54 38 37.53C37.91 37.54 37.92 37.63 37.99 37.66V37.74C38 37.82 37.95 37.89 37.96 37.97C37.9533 38.05 37.9433 38.1367 37.93 38.23C37.9033 38.3233 37.89 38.4133 37.89 38.5C37.88 38.58 37.82 38.55 37.77 38.53V38.43C37.77 38.35 37.73 38.31 37.65 38.31C37.5833 38.3033 37.5567 38.2667 37.57 38.2C37.61 38.1733 37.66 38.1633 37.72 38.17C37.82 38.19 37.81 38.06 37.76 38.01C37.71 37.96 37.64 37.91 37.62 37.85C37.62 37.7633 37.58 37.6933 37.5 37.64C37.39 37.63 37.3 37.72 37.27 37.82C37.2167 37.82 37.17 37.8333 37.13 37.86C37.06 37.88 36.96 38 37.06 38.05C37.11 38.06 37.28 38.1 37.2 38.17C37.1533 38.2367 37.09 38.2567 37.01 38.23C36.94 38.23 36.86 38.19 36.86 38.11C36.86 38.03 36.8467 37.9533 36.82 37.88C36.8 37.8 36.71 37.82 36.7 37.9C36.6333 37.9667 36.63 38.0333 36.69 38.1C36.71 38.18 36.7 38.2533 36.66 38.32C36.64 38.42 36.54 38.42 36.47 38.44C36.44 38.46 36.31 38.44 36.36 38.51C36.435 38.5445 36.5188 38.555 36.6 38.54C36.68 38.5267 36.7467 38.48 36.8 38.4C36.85 38.35 36.94 38.38 37.02 38.38C37.09 38.38 37.17 38.43 37.25 38.39C37.27 38.34 37.37 38.24 37.4 38.34C37.4133 38.4333 37.4633 38.4733 37.55 38.46C37.64 38.46 37.6 38.52 37.6 38.58C37.6133 38.6667 37.6633 38.7267 37.75 38.76H37.83C37.91 38.74 37.97 38.6933 38.01 38.62C38.03 38.5467 38.0467 38.4733 38.06 38.4C38.08 38.2867 38.0933 38.1733 38.1 38.06C38.12 37.96 38.1333 37.8533 38.14 37.74L38.17 37.51C38.17 37.47 38.1533 37.4567 38.12 37.47ZM37.45 37.88C37.4633 37.88 37.47 37.8967 37.47 37.93C37.47 37.9633 37.4867 37.99 37.52 38.01V38.04L37.44 38.06C37.3933 38.06 37.3533 38.0433 37.32 38.01L37.3 37.99L37.33 37.97L37.38 37.92C37.4067 37.8933 37.43 37.88 37.45 37.88ZM44.05 37.09L43.88 37.12C43.78 37.12 43.73 37.22 43.83 37.28C43.89 37.43 43.98 37.24 44.08 37.26C44.22 37.28 44.23 37.44 44.26 37.56C44.2667 37.6667 44.29 37.7767 44.33 37.89C44.43 38 44.26 38.07 44.19 37.99C44.13 37.92 43.99 37.84 43.92 37.93C43.83 37.97 43.82 38.09 43.75 38.13C43.63 38.16 43.62 38.01 43.55 37.95C43.49 37.86 43.38 37.85 43.29 37.83C43.25 37.74 43.27 37.59 43.19 37.53C43.11 37.56 42.97 37.7 43.09 37.77C43.19 37.87 43.04 37.91 42.99 37.97C42.9167 38.0633 42.8833 38.1633 42.89 38.27C42.76 38.34 42.74 38.19 42.72 38.1C42.72 37.99 42.62 38.02 42.55 38.06C42.4633 38.1133 42.3967 38.18 42.35 38.26V38.46C42.37 38.55 42.47 38.51 42.53 38.5C42.63 38.46 42.67 38.57 42.59 38.63C42.53 38.69 42.37 38.66 42.39 38.77H42.55C42.65 38.74 42.77 38.66 42.78 38.54C42.8 38.44 42.95 38.45 43.03 38.43C43.13 38.4 43.26 38.39 43.29 38.53C43.36 38.6 43.51 38.68 43.59 38.58C43.6322 38.5604 43.6663 38.5268 43.6864 38.4848C43.7065 38.4428 43.7113 38.3951 43.7 38.35C43.69 38.27 43.83 38.27 43.87 38.32C43.92 38.4 44.08 38.38 44.16 38.32C44.24 38.26 44.26 38.16 44.38 38.16L44.92 38.01C45.06 37.98 44.9 37.89 44.86 37.83C44.76 37.78 44.66 38 44.54 37.89C44.44 37.82 44.45 37.69 44.42 37.58C44.39 37.44 44.4 37.28 44.3 37.18C44.2333 37.1133 44.15 37.0833 44.05 37.09ZM43.37 38.04C43.3833 38.04 43.4 38.0467 43.42 38.06C43.46 38.0867 43.4833 38.12 43.49 38.16C43.49 38.1733 43.48 38.1833 43.46 38.19L43.41 38.21C43.3767 38.2033 43.3533 38.1867 43.34 38.16V38.12C43.32 38.0867 43.32 38.0667 43.34 38.06L43.37 38.04ZM44.02 38.08C44.0533 38.08 44.08 38.09 44.1 38.11C44.1133 38.1433 44.1 38.17 44.06 38.19L44.01 38.21L43.97 38.18C43.95 38.1733 43.94 38.16 43.94 38.14C43.9467 38.1067 43.9733 38.0833 44.02 38.07V38.08ZM43.12 38.08C43.14 38.08 43.1533 38.0867 43.16 38.1C43.18 38.1133 43.19 38.1333 43.19 38.16V38.22C43.2033 38.24 43.1833 38.2467 43.13 38.24C43.05 38.23 43.06 38.24 43.06 38.18C43.06 38.1467 43.07 38.1233 43.09 38.11C43.11 38.0967 43.1233 38.09 43.13 38.09L43.12 38.08ZM42.58 38.23L42.62 38.27C42.62 38.2967 42.6133 38.3167 42.6 38.33C42.56 38.3433 42.5267 38.3433 42.5 38.33V38.32C42.48 38.3067 42.48 38.2967 42.5 38.29V38.28L42.52 38.25C42.5373 38.237 42.5584 38.23 42.58 38.23ZM43.5 38.35L43.55 38.36V38.42H43.43L43.42 38.4C43.42 38.38 43.4267 38.3667 43.44 38.36L43.5 38.35ZM41.79 38.83C41.77 38.83 41.7667 38.8233 41.78 38.81C41.8 38.7833 41.8267 38.7633 41.86 38.75C41.9154 38.7311 41.9641 38.6963 42 38.65L42.04 38.55L42.03 38.41C42.015 38.3688 41.9869 38.3337 41.95 38.31C41.91 38.31 41.8833 38.29 41.87 38.25C41.8767 38.2233 41.89 38.1933 41.91 38.16L41.97 38.04C42.01 38.02 42.0367 38.0267 42.05 38.06L42.1 38.16C42.1267 38.1867 42.1467 38.22 42.16 38.26C42.18 38.3 42.1933 38.3333 42.2 38.36L42.22 38.49C42.22 38.5433 42.2133 38.5967 42.2 38.65L42.14 38.73C42.1133 38.7633 42.08 38.7867 42.04 38.8C42.0133 38.82 41.9833 38.8333 41.95 38.84H41.8L41.79 38.83ZM41.1 38.87C41.08 38.8567 41.07 38.8367 41.07 38.81C41.07 38.77 41.07 38.78 41.1 38.75C41.1267 38.71 41.1733 38.71 41.24 38.75C41.3067 38.79 41.34 38.7933 41.34 38.76C41.3533 38.7333 41.3867 38.7167 41.44 38.71L41.49 38.73C41.51 38.7433 41.52 38.7667 41.52 38.8C41.52 38.85 41.52 38.85 41.49 38.88C41.47 38.8933 41.4467 38.9 41.42 38.9C41.4026 38.8979 41.386 38.8913 41.372 38.8807C41.3579 38.8702 41.3469 38.8561 41.34 38.84C41.34 38.8133 41.3333 38.81 41.32 38.83L41.3 38.84C41.2733 38.8467 41.2467 38.8633 41.22 38.89L41.17 38.9C41.1433 38.9 41.12 38.89 41.1 38.87ZM39.12 37.98C39.04 37.9867 38.99 38.03 38.97 38.11C38.99 38.18 39.05 38.26 39.01 38.33C39.04 38.43 38.93 38.47 38.86 38.42C38.8333 38.32 38.79 38.22 38.73 38.12C38.65 38.1 38.62 38.23 38.56 38.28C38.59 38.35 38.67 38.42 38.68 38.51C38.6867 38.6167 38.65 38.6967 38.57 38.75C38.5 38.82 38.4 38.8 38.32 38.81C38.22 38.87 38.39 38.89 38.44 38.89C38.5467 38.91 38.6467 38.8833 38.74 38.81C38.81 38.78 38.8 38.64 38.89 38.63L39.37 38.66C39.45 38.68 39.58 38.65 39.64 38.71C39.64 38.81 39.74 38.89 39.83 38.93C39.88 38.95 39.93 38.88 39.98 38.87C40.08 38.84 40.05 38.72 40.11 38.67H40.61C40.63 38.67 40.64 38.62 40.67 38.6L40.65 38.41C40.62 38.33 40.65 38.23 40.6 38.16C40.51 38.14 40.44 38.21 40.36 38.22C40.2533 38.2667 40.1933 38.3433 40.18 38.45C40.13 38.54 40.04 38.43 40.08 38.35L40.07 38.25C40.02 38.2 39.93 38.22 39.86 38.21L39.56 38.19C39.46 38.1967 39.37 38.1933 39.29 38.18C39.19 38.18 39.19 38.08 39.19 38L39.12 37.98ZM39.32 38.35L39.42 38.36H39.55C39.65 38.38 39.75 38.3867 39.85 38.38C39.87 38.38 39.89 38.3933 39.91 38.42V38.62C39.91 38.6533 39.9033 38.68 39.89 38.7L39.87 38.72L39.8 38.67V38.53L39.73 38.5L39.47 38.49L39.27 38.48C39.2367 38.48 39.2067 38.4667 39.18 38.44C39.1667 38.4133 39.18 38.39 39.22 38.37L39.32 38.35ZM40.45 38.38C40.4633 38.38 40.47 38.39 40.47 38.41L40.49 38.46C40.49 38.4733 40.4833 38.48 40.47 38.48C40.4167 38.5 40.3767 38.5 40.35 38.48C40.35 38.46 40.3567 38.44 40.37 38.42L40.45 38.38Z" fill="#C09300"/>
<path d="M40 32.72C43.26 30.22 42.98 26.54 42.98 26.54L42.73 26.56C42.04 26.56 40.41 26.16 40.03 25.67C39.63 26.12 37.95 26.57 37.27 26.57L37.02 26.54C37.02 26.54 36.73 30.21 40 32.72Z" fill="white" stroke="#C09300" stroke-width="0.11"/>
<path d="M42.7199 26.8H42.6399C42.0199 26.8 40.5799 26.49 40.0199 26.01C39.4399 26.45 37.9699 26.81 37.3599 26.81L37.2799 26.8C37.2853 27.432 37.3727 28.0606 37.5399 28.67C37.941 30.1384 38.8034 31.439 39.9999 32.38C41.1982 31.4364 42.0608 30.132 42.4599 28.66C42.6263 28.0538 42.7137 27.4286 42.7199 26.8Z" fill="white" stroke="#C09300" stroke-width="0.09"/>
<path d="M38.9399 26.5C38.4028 26.6752 37.8443 26.7761 37.2799 26.8L37.2899 27.21C37.3242 27.7005 37.408 28.1863 37.5399 28.66C37.8087 29.6435 38.2862 30.5575 38.9399 31.34V26.5ZM40.9999 26.5V31.42C41.6853 30.6197 42.1841 29.6769 42.4599 28.66C42.5919 28.1863 42.6756 27.7005 42.7099 27.21L42.7199 26.81H42.6399C42.2599 26.81 41.5999 26.69 40.9999 26.49V26.5Z" fill="#C09300"/>
<path d="M41.23 25.3C41.3 25.31 41.14 24.95 41.14 24.95C41.32 25.13 41.98 25.18 41.98 25.18C41.58 25 41.18 23.67 41.23 22.6C41.27 21.54 41.08 21.12 40.93 20.96C40.73 20.76 40.08 20.58 39.66 20.56C39.41 20.55 39.46 20.74 39.46 20.74C39.01 20.63 38.56 20.58 38.36 20.72C38.18 20.84 38.14 21.47 38.28 21.36C38.61 21.09 38.9 21.34 39.1 21.63C39.28 21.88 39.27 22.6 39.01 23.45C38.7798 24.0926 38.4416 24.6912 38.01 25.22C38.41 25.22 38.97 24.87 38.97 24.87L38.84 25.42C39.26 25.22 39.59 24.91 39.59 24.91L39.99 25.33C40.12 25.15 40.39 24.91 40.39 24.91C40.39 24.91 40.72 25.26 41.23 25.31V25.3Z" fill="white" stroke="#C09300" stroke-width="0.12"/>
<path d="M39.61 22.76C39.61 22.76 39.39 24.4 38.97 24.86M39.97 22.71C39.97 22.71 39.87 24.38 39.59 24.91M40.28 22.78C40.28 22.78 40.28 24.6 40.38 24.91M40.68 22.87C40.68 22.87 40.76 24.4 41.14 24.95" stroke="#C09300" stroke-width="0.13"/>
<path d="M39.2 21.96C39.1911 21.8441 39.157 21.7315 39.1 21.63C38.9 21.33 38.61 21.09 38.28 21.36C38.28 21.36 38.39 21.01 38.64 21C38.82 20.99 39.25 21.14 39.63 21.78C39.63 21.78 39.35 21.72 39.28 21.78C39.16 21.88 39.21 21.96 39.21 21.96H39.2Z" fill="#C09300" stroke="#C09300" stroke-width="0.03"/>
<path d="M38.24 20.93C38.2667 20.8233 38.31 20.7533 38.37 20.72C38.57 20.58 39.01 20.62 39.46 20.74C39.46 20.74 39.42 20.55 39.66 20.56C40.08 20.58 40.72 20.76 40.92 20.96C40.9839 21.0305 41.0347 21.1117 41.07 21.2C40.97 21.06 40.69 21.07 40.62 21.08C40.52 21.09 40.45 21.08 40.31 21.12C40.23 21.14 40.1533 21.1667 40.08 21.2C40.04 21.24 40 21.36 39.94 21.36C39.84 21.36 39.84 21.34 39.81 21.31C39.7833 21.2433 39.7533 21.21 39.72 21.21C39.6133 21.2233 39.4467 21.14 39.22 20.96C38.99 20.78 38.9 20.74 38.62 20.76C38.32 20.78 38.24 20.95 38.24 20.95V20.93Z" fill="#C09300" stroke="#C09300" stroke-width="0.03"/>
<path d="M39.88 21.19C39.9463 21.19 40 21.1363 40 21.07C40 21.0037 39.9463 20.95 39.88 20.95C39.8137 20.95 39.76 21.0037 39.76 21.07C39.76 21.1363 39.8137 21.19 39.88 21.19Z" fill="white"/>
</g>
<defs>
<clipPath id="clip0_26_457">
<rect width="80" height="60" fill="white"/>
</clipPath>
</defs>
</svg>
