<svg width="80" height="60" viewBox="0 0 80 60" fill="none" xmlns="http://www.w3.org/2000/svg">
<g clip-path="url(#clip0_26_358)">
<path d="M0 20H80V40H0V20Z" fill="white"/>
<path d="M0 0H80V20H0V0Z" fill="#CE1126"/>
<path d="M0 40H80V60H0V40Z" fill="#000001"/>
<path d="M48.8646 26.3269L48.558 26.1079C48.4704 26.0057 48.558 25.9911 48.8208 26.0641C49.3025 26.2101 49.6894 26.1517 49.9814 25.8889L50.266 25.648L50.5945 25.8013C50.8135 25.9181 50.9595 25.9692 51.0325 25.9546C51.1857 25.9108 51.4923 25.5167 51.4704 25.3853C51.4704 25.232 51.6018 25.2758 51.6894 25.451C51.8208 25.8013 51.6237 26.2174 51.2514 26.305C51.1054 26.3488 50.9157 26.3269 50.6821 26.2393C50.3755 26.1298 50.3098 26.1298 50.1565 26.2393C49.9785 26.3894 49.7572 26.4788 49.5249 26.4946C49.2926 26.5103 49.0613 26.4516 48.8646 26.3269ZM50.1346 25.1663C49.9864 24.8985 49.9109 24.5965 49.9157 24.2904C49.9303 24.159 49.9887 24.1152 50.0909 24.159C50.3098 24.2247 50.3536 24.378 50.3098 24.8159C50.3098 25.2101 50.2514 25.3269 50.1346 25.1663ZM35.3318 24.7502C35.3099 25.0349 35.8573 25.7575 36.0982 25.8889C35.923 25.9546 35.7259 25.9327 35.5726 25.9984C34.6967 26.8743 31.5435 29.94 30.9741 30.6845C32.6821 30.7283 34.5653 30.6626 36.1639 30.5969C36.1639 29.4364 37.2588 29.3707 38.0033 28.9546C38.3756 29.5458 39.3172 29.5021 39.4485 30.3999V34.2539H24.8865C24.8315 34.5461 24.7156 34.8235 24.5466 35.0681C24.3775 35.3127 24.1589 35.5191 23.905 35.674C23.6511 35.8288 23.3676 35.9285 23.0727 35.9668C22.7778 36.0051 22.4781 35.981 22.1931 35.8962C22.6311 35.4582 23.3756 35.2831 23.6384 34.648C23.8573 33.2466 23.2004 32.3926 22.7625 31.5823C23.3133 31.4057 23.8312 31.1394 24.2953 30.794C23.7917 32.3269 25.653 32.1736 27.0106 32.1298C27.0544 31.6042 27.0325 30.9911 26.6384 30.9035C27.142 30.7064 27.2296 30.6407 28.0836 29.94V32.0422L38.1785 32.0203C38.1785 31.3634 38.3537 30.2904 37.8281 30.2904C37.3464 30.2904 37.8281 31.648 37.4339 31.648H29.6165V30.3342C29.9449 29.9838 29.9011 30.0057 32.1566 27.7502C32.3756 27.5313 33.9741 26.086 35.3537 24.7502H35.3318ZM54.8427 24.6845C55.3901 24.9911 55.8281 25.3853 56.485 25.5605C56.4193 25.8451 56.1565 25.9546 56.0908 26.2393V32.1517C56.8354 32.305 57.0105 31.867 57.3609 31.648C57.4485 32.5896 58.0616 33.5093 58.0178 34.2758H54.8427V24.6845ZM50.5945 27.8597C50.5945 27.8597 51.7551 26.8743 51.7551 26.8305V31.9765H52.5872L52.5653 26.2174C52.8938 25.867 53.5726 25.3853 53.7259 25.0349V34.232H46.412C46.3025 32.3269 46.2806 30.3561 48.5142 30.7721V30.0057C48.4485 29.8743 48.3171 30.0276 48.2952 29.8524C48.6456 29.5021 48.7551 29.4145 49.7186 28.5823L49.7405 31.9765H50.5945V27.8597ZM47.8354 31.9327C47.9887 32.1517 48.5361 32.1517 48.4923 31.7575C48.4266 31.4291 47.7259 31.5385 47.8354 31.9327Z" fill="#007A3D"/>
<path d="M26.6384 35.7867C26.8803 35.7867 27.0763 35.5906 27.0763 35.3487C27.0763 35.1068 26.8803 34.9108 26.6384 34.9108C26.3965 34.9108 26.2004 35.1068 26.2004 35.3487C26.2004 35.5906 26.3965 35.7867 26.6384 35.7867Z" fill="#007A3D"/>
<path d="M40.4338 24.7064C40.9813 24.9911 41.4192 25.4071 42.0981 25.5823C42.0105 25.8451 41.7696 25.9546 41.7039 26.2393V32.1517C42.4484 32.3049 42.6017 31.8889 42.9521 31.648C43.0616 32.5896 43.6528 33.5312 43.6309 34.2757H40.4338V24.7064Z" fill="#007A3D"/>
</g>
<defs>
<clipPath id="clip0_26_358">
<rect width="80" height="60" fill="white"/>
</clipPath>
</defs>
</svg>
