<svg width="80" height="60" viewBox="0 0 80 60" fill="none" xmlns="http://www.w3.org/2000/svg">
<g clip-path="url(#clip0_26_390)">
<path d="M0 0H80V60H0V0Z" fill="#CD2A3E"/>
<path d="M0 9H80V51H0V9Z" fill="#006233"/>
<path d="M58.75 19.325C58.75 24.2978 56.7746 29.067 53.2583 32.5833C49.742 36.0996 44.9728 38.075 40 38.075C35.0272 38.075 30.2581 36.0996 26.7418 32.5833C23.2254 29.067 21.25 24.2978 21.25 19.325C20.8335 20.925 20.6234 22.5717 20.625 24.225C20.625 29.3636 22.6663 34.2917 26.2998 37.9252C29.9333 41.5587 34.8614 43.6 40 43.6C45.1386 43.6 50.0667 41.5587 53.7002 37.9252C57.3337 34.2917 59.375 29.3636 59.375 24.225C59.378 22.5716 59.1679 20.9247 58.75 19.325Z" fill="#FFC400"/>
<path d="M40 11.725L38.3125 16.9125H32.875L37.2875 20.1125L35.6 25.2875L40.0125 22.0875L44.425 25.2875L42.7375 20.1125L47.15 16.9125H41.7L40 11.725Z" fill="#FFC400"/>
</g>
<defs>
<clipPath id="clip0_26_390">
<rect width="80" height="60" fill="white"/>
</clipPath>
</defs>
</svg>
