<svg width="80" height="60" viewBox="0 0 80 60" fill="none" xmlns="http://www.w3.org/2000/svg">
<g clip-path="url(#clip0_26_493)">
<mask id="mask0_26_493" style="mask-type:luminance" maskUnits="userSpaceOnUse" x="0" y="0" width="80" height="60">
<path d="M0 0H80V60H0V0Z" fill="white"/>
</mask>
<g mask="url(#mask0_26_493)">
<path fill-rule="evenodd" clip-rule="evenodd" d="M-0.412598 -2.70001H87.3749V66.425H-0.412598V-2.70001Z" fill="#EF2D29"/>
<path fill-rule="evenodd" clip-rule="evenodd" d="M21.825 39.6625H88.7874V65.625H21.825V39.6625Z" fill="#009025"/>
<path fill-rule="evenodd" clip-rule="evenodd" d="M21.825 -4.42499H92.4375V19.325H21.8125L21.825 -4.42499Z" fill="white"/>
<path d="M17.5 8.69861H14.6319C14.4771 8.69861 14.3516 8.81579 14.3516 8.96033V10.3222C14.3516 10.4667 14.4771 10.5839 14.6319 10.5839H17.5C17.6548 10.5839 17.7803 10.4667 17.7803 10.3222V8.96033C17.7803 8.81579 17.6548 8.69861 17.5 8.69861Z" fill="white" stroke="#EF2D28" stroke-width="0.0328414"/>
<path d="M17.428 8.77844H14.7064C14.5598 8.77844 14.4409 8.88668 14.4409 9.0202V10.2667C14.4409 10.4002 14.5598 10.5085 14.7064 10.5085H17.428C17.5747 10.5085 17.6935 10.4002 17.6935 10.2667V9.0202C17.6935 8.88668 17.5747 8.77844 17.428 8.77844Z" fill="white" stroke="#EF2D28" stroke-width="0.0304956"/>
<path fill-rule="evenodd" clip-rule="evenodd" d="M15.9534 9.24731L16.1173 9.2538L16.1241 9.32909L16.2593 9.39788L16.364 9.31092L16.4908 9.37971L16.3725 9.45499L16.4012 9.55883L16.5499 9.55234V9.68863L16.4316 9.68343L16.3708 9.7691L16.506 9.86645L16.4012 9.94692L16.288 9.86126L16.1241 9.895L16.1326 10.0209L15.9534 10.0339L15.9298 9.91188L15.7811 9.84957L15.6983 9.93524L15.5716 9.87164L15.6459 9.77429L15.5563 9.71199H15.4296L15.4229 9.53417L15.5496 9.54585L15.6391 9.44201L15.5344 9.36154L15.6696 9.27068L15.7659 9.34466L15.9298 9.3213L15.9534 9.24731Z" fill="white" stroke="#EF2D28" stroke-width="0.0192526"/>
<path d="M16.0001 9.77587C16.1002 9.77587 16.1814 9.70683 16.1814 9.62167C16.1814 9.53651 16.1002 9.46747 16.0001 9.46747C15.9 9.46747 15.8188 9.53651 15.8188 9.62167C15.8188 9.70683 15.9 9.77587 16.0001 9.77587Z" fill="white" stroke="#EF2D28" stroke-width="0.0207327"/>
<path fill-rule="evenodd" clip-rule="evenodd" d="M14.88 8.85608L14.6145 9.09119L14.88 8.85608ZM15.0562 8.85608L14.7907 9.09119L15.0562 8.85608ZM15.2298 8.85608L14.9668 9.09119L15.2298 8.85608ZM15.406 8.85608L15.143 9.09119L15.406 8.85608ZM15.5821 8.85608L15.3191 9.09119L15.5821 8.85608ZM15.7583 8.85608L15.4953 9.09119L15.7583 8.85608ZM15.9344 8.85608L15.6714 9.09119L15.9344 8.85608ZM16.1106 8.85608L15.8476 9.09119L16.1106 8.85608ZM16.2867 8.85608L16.0213 9.09119L16.2867 8.85608ZM16.4629 8.85608L16.1949 9.09119L16.4629 8.85608ZM16.6341 8.85608L16.3711 9.09119L16.6341 8.85608ZM16.8102 8.85608L16.5472 9.09119L16.8102 8.85608ZM16.1081 8.85608L15.8476 9.09119L16.1081 8.85608ZM16.9889 8.85608L16.7259 9.09119L16.9889 8.85608ZM17.165 8.85608L16.902 9.09119L17.165 8.85608ZM17.3412 8.85608L17.0782 9.09119L17.3412 8.85608ZM17.5173 8.85608L17.2543 9.09119L17.5173 8.85608ZM17.2543 8.85608L17.5173 9.09119L17.2543 8.85608ZM17.0782 8.85608L17.3412 9.09119L17.0782 8.85608ZM16.902 8.85608L17.165 9.09119L16.902 8.85608ZM16.7259 8.85608L16.9889 9.09119L16.7259 8.85608ZM16.5497 8.85608L16.8127 9.09119L16.5497 8.85608ZM16.3736 8.85608L16.6366 9.09119L16.3736 8.85608ZM16.1974 8.85608L16.4629 9.09119L16.1974 8.85608ZM16.0213 8.85608L16.2843 9.09119L16.0213 8.85608ZM15.8426 8.85608L16.1081 9.09119L15.8426 8.85608ZM15.669 8.85608L15.932 9.09119L15.669 8.85608ZM15.4928 8.85608L15.7558 9.09119L15.4928 8.85608ZM15.3167 8.85608L15.5797 9.09119L15.3167 8.85608ZM16.0213 8.85608L16.2843 9.09119L16.0213 8.85608ZM15.143 8.85608L15.4035 9.09119L15.143 8.85608ZM14.9644 8.85608L15.2298 9.09119L14.9644 8.85608ZM14.7882 8.85608L15.0537 9.09119L14.7882 8.85608ZM14.6121 8.85608L14.88 9.09119L14.6121 8.85608ZM14.88 10.1913L14.617 10.4286L14.88 10.1913ZM15.0537 10.1913L14.7882 10.4286L15.0537 10.1913ZM15.2323 10.1913L14.9668 10.4286L15.2323 10.1913ZM15.406 10.1913L15.143 10.4286L15.406 10.1913ZM15.5821 10.1913L15.3191 10.4286L15.5821 10.1913ZM15.7583 10.1913L15.4953 10.4286L15.7583 10.1913ZM15.9344 10.1913L15.6739 10.4286L15.9344 10.1913ZM16.1106 10.1913L15.8476 10.4286L16.1106 10.1913ZM16.2867 10.1913L16.0213 10.4286L16.2867 10.1913ZM16.4604 10.1913L16.1949 10.4286L16.4604 10.1913ZM16.6415 10.1913L16.3761 10.4286L16.6415 10.1913ZM16.8152 10.1913L16.5522 10.4286L16.8152 10.1913ZM16.1106 10.1913L15.8476 10.4286L16.1106 10.1913ZM16.9889 10.1913L16.7259 10.4286L16.9889 10.1913ZM17.165 10.1913L16.902 10.4286L17.165 10.1913ZM17.3412 10.1913L17.0782 10.4286L17.3412 10.1913ZM17.5173 10.1913L17.2543 10.4286L17.5173 10.1913ZM17.2543 10.1913L17.5173 10.4286L17.2543 10.1913ZM17.0782 10.1913L17.3412 10.4286L17.0782 10.1913ZM16.902 10.1913L17.165 10.4286L16.902 10.1913ZM16.7259 10.1913L16.9889 10.4286L16.7259 10.1913ZM16.5497 10.1913L16.8127 10.4286L16.5497 10.1913ZM16.3736 10.1913L16.639 10.4286L16.3736 10.1913ZM16.1949 10.1913L16.4604 10.4286L16.1949 10.1913ZM16.0213 10.1913L16.2843 10.4286L16.0213 10.1913ZM15.8476 10.1913L16.1106 10.4286L15.8476 10.1913ZM15.6714 10.1913L15.9344 10.4286L15.6714 10.1913ZM15.4953 10.1913L15.7583 10.4286L15.4953 10.1913ZM15.3191 10.1913L15.5821 10.4286L15.3191 10.1913ZM16.0237 10.1913L16.2867 10.4286L16.0237 10.1913ZM15.1455 10.1913L15.406 10.4286L15.1455 10.1913ZM14.9668 10.1913L15.2323 10.4286L14.9668 10.1913ZM14.7907 10.1913L15.0562 10.4286L14.7907 10.1913ZM14.617 10.1913L14.88 10.4286L14.617 10.1913Z" fill="white"/>
<path d="M14.88 8.85608L14.6145 9.09119M15.0562 8.85608L14.7907 9.09119M15.2298 8.85608L14.9668 9.09119M15.406 8.85608L15.143 9.09119M15.5821 8.85608L15.3191 9.09119M15.7583 8.85608L15.4953 9.09119M15.9344 8.85608L15.6714 9.09119M16.1106 8.85608L15.8476 9.09119L16.1081 8.85608M16.2867 8.85608L16.0213 9.09119M16.4629 8.85608L16.1949 9.09119M16.6341 8.85608L16.3711 9.09119M16.8102 8.85608L16.5472 9.09119M16.9889 8.85608L16.7259 9.09119M17.165 8.85608L16.902 9.09119M17.3412 8.85608L17.0782 9.09119M17.5173 8.85608L17.2543 9.09119M17.2543 8.85608L17.5173 9.09119M17.0782 8.85608L17.3412 9.09119M16.902 8.85608L17.165 9.09119M16.7259 8.85608L16.9889 9.09119M16.5497 8.85608L16.8127 9.09119M16.3736 8.85608L16.6366 9.09119M16.1974 8.85608L16.4629 9.09119M16.0213 8.85608L16.2843 9.09119M15.8426 8.85608L16.1081 9.09119M15.669 8.85608L15.932 9.09119M15.4928 8.85608L15.7558 9.09119M15.3167 8.85608L15.5797 9.09119M15.143 8.85608L15.4035 9.09119M14.9644 8.85608L15.2298 9.09119M14.7882 8.85608L15.0537 9.09119M14.6121 8.85608L14.88 9.09119M14.88 10.1913L14.617 10.4286M15.0537 10.1913L14.7882 10.4286M15.2323 10.1913L14.9668 10.4286M15.406 10.1913L15.143 10.4286M15.5821 10.1913L15.3191 10.4286M15.7583 10.1913L15.4953 10.4286M15.9344 10.1913L15.6739 10.4286M16.1106 10.1913L15.8476 10.4286M16.2867 10.1913L16.0213 10.4286M16.4604 10.1913L16.1949 10.4286M16.6415 10.1913L16.3761 10.4286M16.8152 10.1913L16.5522 10.4286M16.9889 10.1913L16.7259 10.4286M17.165 10.1913L16.902 10.4286M17.3412 10.1913L17.0782 10.4286M17.5173 10.1913L17.2543 10.4286M17.2543 10.1913L17.5173 10.4286M17.0782 10.1913L17.3412 10.4286M16.902 10.1913L17.165 10.4286M16.7259 10.1913L16.9889 10.4286M16.5497 10.1913L16.8127 10.4286M16.3736 10.1913L16.639 10.4286M16.1949 10.1913L16.4604 10.4286M16.0213 10.1913L16.2843 10.4286M15.8476 10.1913L16.1106 10.4286M15.6714 10.1913L15.9344 10.4286M15.4953 10.1913L15.7583 10.4286M15.3191 10.1913L15.5821 10.4286M16.0237 10.1913L16.2867 10.4286M15.1455 10.1913L15.406 10.4286M14.9668 10.1913L15.2323 10.4286M14.7907 10.1913L15.0562 10.4286M14.617 10.1913L14.88 10.4286" stroke="#EF2D28" stroke-width="0.0304956"/>
<path d="M5.97505 8.6236H3.10701C2.95218 8.6236 2.82666 8.74077 2.82666 8.88532V10.2472C2.82666 10.3917 2.95218 10.5089 3.10701 10.5089H5.97505C6.12988 10.5089 6.2554 10.3917 6.2554 10.2472V8.88532C6.2554 8.74077 6.12988 8.6236 5.97505 8.6236Z" fill="white" stroke="#EF2D28" stroke-width="0.0328414"/>
<path d="M5.90314 8.70343H3.18148C3.03487 8.70343 2.91602 8.81167 2.91602 8.94519V10.1917C2.91602 10.3252 3.03487 10.4335 3.18148 10.4335H5.90314C6.04975 10.4335 6.16861 10.3252 6.16861 10.1917V8.94519C6.16861 8.81167 6.04975 8.70343 5.90314 8.70343Z" fill="white" stroke="#EF2D28" stroke-width="0.0304956"/>
<path fill-rule="evenodd" clip-rule="evenodd" d="M4.42853 9.1723L4.59244 9.17879L4.5992 9.25407L4.73438 9.32287L4.83915 9.2359L4.96588 9.3047L4.84759 9.37998L4.87632 9.48382L5.02502 9.47733V9.61361L4.90674 9.60842L4.8459 9.69409L4.98109 9.79144L4.87632 9.87191L4.76311 9.78624L4.5992 9.81999L4.60765 9.94589L4.42853 9.95887L4.40488 9.83686L4.25618 9.77456L4.17338 9.86023L4.04665 9.79663L4.121 9.69928L4.03144 9.63698H3.90471L3.89795 9.45915L4.02468 9.47084L4.11424 9.367L4.00947 9.28652L4.14465 9.19567L4.24097 9.26965L4.40488 9.24629L4.42853 9.1723Z" fill="white" stroke="#EF2D28" stroke-width="0.0192526"/>
<path d="M4.4752 9.70085C4.57531 9.70085 4.65646 9.63182 4.65646 9.54666C4.65646 9.46149 4.57531 9.39246 4.4752 9.39246C4.3751 9.39246 4.29395 9.46149 4.29395 9.54666C4.29395 9.63182 4.3751 9.70085 4.4752 9.70085Z" fill="white" stroke="#EF2D28" stroke-width="0.0207327"/>
<path fill-rule="evenodd" clip-rule="evenodd" d="M3.35511 8.78107L3.08964 9.01618L3.35511 8.78107ZM3.53126 8.78107L3.26579 9.01618L3.53126 8.78107ZM3.70493 8.78107L3.44194 9.01618L3.70493 8.78107ZM3.88108 8.78107L3.61809 9.01618L3.88108 8.78107ZM4.05723 8.78107L3.79424 9.01618L4.05723 8.78107ZM4.23338 8.78107L3.97039 9.01618L4.23338 8.78107ZM4.40953 8.78107L4.14655 9.01618L4.40953 8.78107ZM4.58568 8.78107L4.3227 9.01618L4.58568 8.78107ZM4.76183 8.78107L4.49637 9.01618L4.76183 8.78107ZM4.93798 8.78107L4.67004 9.01618L4.93798 8.78107ZM5.10917 8.78107L4.84619 9.01618L5.10917 8.78107ZM5.28532 8.78107L5.02234 9.01618L5.28532 8.78107ZM4.5832 8.78107L4.3227 9.01618L4.5832 8.78107ZM5.46396 8.78107L5.20097 9.01618L5.46396 8.78107ZM5.64011 8.78107L5.37712 9.01618L5.64011 8.78107ZM5.81626 8.78107L5.55327 9.01618L5.81626 8.78107ZM5.99241 8.78107L5.72942 9.01618L5.99241 8.78107ZM5.72942 8.78107L5.99241 9.01618L5.72942 8.78107ZM5.55327 8.78107L5.81626 9.01618L5.55327 8.78107ZM5.37712 8.78107L5.64011 9.01618L5.37712 8.78107ZM5.20097 8.78107L5.46396 9.01618L5.20097 8.78107ZM5.02482 8.78107L5.28781 9.01618L5.02482 8.78107ZM4.84867 8.78107L5.11165 9.01618L4.84867 8.78107ZM4.67252 8.78107L4.93798 9.01618L4.67252 8.78107ZM4.49637 8.78107L4.75935 9.01618L4.49637 8.78107ZM4.31773 8.78107L4.5832 9.01618L4.31773 8.78107ZM4.14406 8.78107L4.40705 9.01618L4.14406 8.78107ZM3.96791 8.78107L4.2309 9.01618L3.96791 8.78107ZM3.79176 8.78107L4.05475 9.01618L3.79176 8.78107ZM4.49637 8.78107L4.75935 9.01618L4.49637 8.78107ZM3.61809 8.78107L3.8786 9.01618L3.61809 8.78107ZM3.43946 8.78107L3.70493 9.01618L3.43946 8.78107ZM3.26331 8.78107L3.52878 9.01618L3.26331 8.78107ZM3.08716 8.78107L3.35511 9.01618L3.08716 8.78107ZM3.35511 10.1163L3.09212 10.3536L3.35511 10.1163ZM3.52878 10.1163L3.26331 10.3536L3.52878 10.1163ZM3.70741 10.1163L3.44194 10.3536L3.70741 10.1163ZM3.88108 10.1163L3.61809 10.3536L3.88108 10.1163ZM4.05723 10.1163L3.79424 10.3536L4.05723 10.1163ZM4.23338 10.1163L3.97039 10.3536L4.23338 10.1163ZM4.40953 10.1163L4.14903 10.3536L4.40953 10.1163ZM4.58568 10.1163L4.3227 10.3536L4.58568 10.1163ZM4.76183 10.1163L4.49637 10.3536L4.76183 10.1163ZM4.9355 10.1163L4.67004 10.3536L4.9355 10.1163ZM5.11662 10.1163L4.85115 10.3536L5.11662 10.1163ZM5.29029 10.1163L5.0273 10.3536L5.29029 10.1163ZM4.58568 10.1163L4.3227 10.3536L4.58568 10.1163ZM5.46396 10.1163L5.20097 10.3536L5.46396 10.1163ZM5.64011 10.1163L5.37712 10.3536L5.64011 10.1163ZM5.81626 10.1163L5.55327 10.3536L5.81626 10.1163ZM5.99241 10.1163L5.72942 10.3536L5.99241 10.1163ZM5.72942 10.1163L5.99241 10.3536L5.72942 10.1163ZM5.55327 10.1163L5.81626 10.3536L5.55327 10.1163ZM5.37712 10.1163L5.64011 10.3536L5.37712 10.1163ZM5.20097 10.1163L5.46396 10.3536L5.20097 10.1163ZM5.02482 10.1163L5.28781 10.3536L5.02482 10.1163ZM4.84867 10.1163L5.11414 10.3536L4.84867 10.1163ZM4.67004 10.1163L4.9355 10.3536L4.67004 10.1163ZM4.49637 10.1163L4.75935 10.3536L4.49637 10.1163ZM4.3227 10.1163L4.58568 10.3536L4.3227 10.1163ZM4.14655 10.1163L4.40953 10.3536L4.14655 10.1163ZM3.97039 10.1163L4.23338 10.3536L3.97039 10.1163ZM3.79424 10.1163L4.05723 10.3536L3.79424 10.1163ZM4.49885 10.1163L4.76183 10.3536L4.49885 10.1163ZM3.62057 10.1163L3.88108 10.3536L3.62057 10.1163ZM3.44194 10.1163L3.70741 10.3536L3.44194 10.1163ZM3.26579 10.1163L3.53126 10.3536L3.26579 10.1163ZM3.09212 10.1163L3.35511 10.3536L3.09212 10.1163Z" fill="white"/>
<path d="M3.35511 8.78107L3.08964 9.01618M3.53126 8.78107L3.26579 9.01618M3.70493 8.78107L3.44194 9.01618M3.88108 8.78107L3.61809 9.01618M4.05723 8.78107L3.79424 9.01618M4.23338 8.78107L3.97039 9.01618M4.40953 8.78107L4.14655 9.01618M4.58568 8.78107L4.3227 9.01618L4.5832 8.78107M4.76183 8.78107L4.49637 9.01618M4.93798 8.78107L4.67004 9.01618M5.10917 8.78107L4.84619 9.01618M5.28532 8.78107L5.02234 9.01618M5.46396 8.78107L5.20097 9.01618M5.64011 8.78107L5.37712 9.01618M5.81626 8.78107L5.55327 9.01618M5.99241 8.78107L5.72942 9.01618M5.72942 8.78107L5.99241 9.01618M5.55327 8.78107L5.81626 9.01618M5.37712 8.78107L5.64011 9.01618M5.20097 8.78107L5.46396 9.01618M5.02482 8.78107L5.28781 9.01618M4.84867 8.78107L5.11165 9.01618M4.67252 8.78107L4.93798 9.01618M4.49637 8.78107L4.75935 9.01618M4.31773 8.78107L4.5832 9.01618M4.14406 8.78107L4.40705 9.01618M3.96791 8.78107L4.2309 9.01618M3.79176 8.78107L4.05475 9.01618M3.61809 8.78107L3.8786 9.01618M3.43946 8.78107L3.70493 9.01618M3.26331 8.78107L3.52878 9.01618M3.08716 8.78107L3.35511 9.01618M3.35511 10.1163L3.09212 10.3536M3.52878 10.1163L3.26331 10.3536M3.70741 10.1163L3.44194 10.3536M3.88108 10.1163L3.61809 10.3536M4.05723 10.1163L3.79424 10.3536M4.23338 10.1163L3.97039 10.3536M4.40953 10.1163L4.14903 10.3536M4.58568 10.1163L4.3227 10.3536M4.76183 10.1163L4.49637 10.3536M4.9355 10.1163L4.67004 10.3536M5.11662 10.1163L4.85115 10.3536M5.29029 10.1163L5.0273 10.3536M5.46396 10.1163L5.20097 10.3536M5.64011 10.1163L5.37712 10.3536M5.81626 10.1163L5.55327 10.3536M5.99241 10.1163L5.72942 10.3536M5.72942 10.1163L5.99241 10.3536M5.55327 10.1163L5.81626 10.3536M5.37712 10.1163L5.64011 10.3536M5.20097 10.1163L5.46396 10.3536M5.02482 10.1163L5.28781 10.3536M4.84867 10.1163L5.11414 10.3536M4.67004 10.1163L4.9355 10.3536M4.49637 10.1163L4.75935 10.3536M4.3227 10.1163L4.58568 10.3536M4.14655 10.1163L4.40953 10.3536M3.97039 10.1163L4.23338 10.3536M3.79424 10.1163L4.05723 10.3536M4.49885 10.1163L4.76183 10.3536M3.62057 10.1163L3.88108 10.3536M3.44194 10.1163L3.70741 10.3536M3.26579 10.1163L3.53126 10.3536M3.09212 10.1163L3.35511 10.3536" stroke="#EF2D28" stroke-width="0.0304956"/>
<path fill-rule="evenodd" clip-rule="evenodd" d="M8.20935 12.5699C3.94316 16.754 2.12324 17.2825 2.97886 17.6202C3.83448 17.9579 6.58097 15.798 9.43837 12.9317C12.2958 10.0654 14.046 7.51229 13.1904 7.17457C12.3348 6.83686 12.7482 8.12358 8.20935 12.5699Z" fill="white" stroke="#EF2D28" stroke-width="0.0510375"/>
<path fill-rule="evenodd" clip-rule="evenodd" d="M4.62359 15.6144L6.11963 16.007C4.7129 17.3444 3.13002 17.8923 2.69089 17.6572C2.25175 17.422 3.48233 16.872 4.62607 15.6166L4.62359 15.6144Z" fill="white" stroke="#EF2D28" stroke-width="0.0281498"/>
<path fill-rule="evenodd" clip-rule="evenodd" d="M4.62293 15.7701L5.85547 16.0837C4.48517 17.3697 3.12938 17.7344 2.77895 17.5766C2.4261 17.4209 3.51122 16.9794 4.62293 15.7701Z" fill="white" stroke="#EF2D28" stroke-width="0.0295141"/>
<path d="M9.20532 12.3912C9.20183 12.4114 9.19134 12.5014 9.18261 12.5371C9.18261 12.5868 9.17737 12.624 9.17212 12.6628C9.15815 12.6969 9.15989 12.728 9.11796 12.7404C9.09848 12.7713 9.06765 12.7954 9.0306 12.8087C8.99699 12.8325 8.95997 12.8524 8.92052 12.8676C8.87909 12.8831 8.83315 12.8864 8.78948 12.8769C8.75337 12.8521 8.72075 12.8293 8.69163 12.8087C8.68464 12.7776 8.67765 12.7326 8.66892 12.7016C8.68249 12.743 8.69012 12.7857 8.69163 12.8288C8.68814 12.8754 8.66892 12.8971 8.64795 12.9343" stroke="#EF2D28" stroke-width="0.0296388"/>
<path d="M8.80872 13.0408L8.79824 13.0315C8.82445 13.0548 8.81397 13.0439 8.75456 13.0114C8.71379 12.9948 8.66661 12.9824 8.61303 12.9741H8.45927C8.39987 12.9741 8.35968 12.9819 8.31775 12.9927C8.2863 13.0207 8.24087 13.0362 8.20767 13.061C8.17816 13.0808 8.15572 13.1078 8.14302 13.1386C8.11332 13.165 8.0941 13.2053 8.06614 13.2255C8.05391 13.2705 8.02945 13.269 8.01198 13.3031C8.06439 13.3062 8.10458 13.3124 8.13254 13.3419C8.17797 13.3621 8.0941 13.3217 8.07663 13.3031C8.04168 13.2938 8.03294 13.2845 7.97878 13.2845C7.92986 13.269 7.89841 13.2953 7.84774 13.3031C7.81803 13.3186 7.8093 13.3233 7.77086 13.3233" stroke="#EF2D28" stroke-width="0.0296388"/>
<path d="M8.22021 13.5237C8.1975 13.5237 8.09616 13.5408 8.05597 13.5237C8.01054 13.5128 7.98608 13.4927 7.95813 13.4554C7.94415 13.429 7.95813 13.502 7.95813 13.533C7.95289 13.5904 7.93367 13.5904 7.90222 13.6292C7.87077 13.6478 7.83757 13.6727 7.80437 13.6882C7.77525 13.7093 7.74211 13.7256 7.70652 13.7363C7.66925 13.7497 7.63663 13.7658 7.60868 13.7844C7.57199 13.8077 7.57373 13.8356 7.55277 13.8728C7.55801 13.9194 7.56674 13.9473 7.59645 13.969C7.61042 14.0016 7.63838 14.0342 7.66284 14.0559C7.68905 14.1025 7.7205 14.1227 7.65236 14.1335C7.61392 14.149 7.59295 14.1366 7.55277 14.1335" stroke="#EF2D28" stroke-width="0.0296388"/>
<path d="M7.52759 14.1999C7.49963 14.1937 7.40528 14.1658 7.36335 14.1518H7.20959C7.15193 14.1564 7.1397 14.172 7.09078 14.1906C7.05758 14.2201 7.03661 14.2402 6.99118 14.2589C6.96847 14.2852 6.92129 14.3318 6.90382 14.3659C6.88958 14.4061 6.88251 14.448 6.88285 14.4901C6.88285 14.5475 6.90033 14.5584 6.90382 14.608C6.91589 14.6507 6.93858 14.6905 6.97022 14.7244C6.97371 14.7347 6.9807 14.7409 6.99118 14.743" stroke="#EF2D28" stroke-width="0.0296388"/>
<path d="M7.01221 14.8695C7.00725 14.8695 6.99732 14.894 6.98119 14.9149C6.94522 14.9516 6.9415 14.954 6.88816 14.954C6.83854 14.9516 6.84474 14.9345 6.81 14.9234C6.79388 14.8989 6.77403 14.8793 6.75542 14.8463C6.74302 14.8267 6.73185 14.796 6.71821 14.7777C6.70332 14.7544 6.68596 14.7372 6.67107 14.7164C6.65618 14.7103 6.65122 14.7042 6.63137 14.7005C6.67603 14.7078 6.68099 14.7238 6.70952 14.747L6.74798 14.8156C6.75294 14.8487 6.76287 14.8744 6.76411 14.9149C6.76411 14.9577 6.76411 14.9871 6.74798 15.0226C6.72937 15.041 6.71697 15.0606 6.6934 15.0765C6.67381 15.0953 6.65596 15.1158 6.64006 15.1378L6.56935 15.1831C6.54702 15.1966 6.52097 15.21 6.48499 15.2137C6.4391 15.21 6.42545 15.1978 6.39196 15.1831C6.36219 15.1623 6.33986 15.1488 6.3138 15.1292C6.29243 15.1118 6.274 15.0911 6.25922 15.068C6.21829 15.0582 6.191 15.0618 6.16619 15.0839C6.14523 15.0985 6.12716 15.1168 6.11284 15.1378C6.10044 15.1439 6.07811 15.1623 6.0657 15.1684" stroke="#EF2D28" stroke-width="0.0283512"/>
<path d="M6.15496 15.1934C6.1673 15.1979 6.21356 15.23 6.23207 15.2407C6.24441 15.282 6.26446 15.3034 6.27063 15.3478C6.27988 15.3885 6.28348 15.4328 6.28142 15.4807C6.27063 15.5297 6.25058 15.5648 6.23207 15.603C6.20122 15.6244 6.1858 15.6397 6.1457 15.6611C6.10869 15.6683 6.06705 15.6718 6.02078 15.6718C5.98994 15.681 5.93442 15.6856 5.90511 15.6718C5.86193 15.6657 5.82954 15.6489 5.7987 15.6336C5.76323 15.6137 5.74163 15.5939 5.70308 15.5755C5.68149 15.549 5.65578 15.5205 5.62597 15.4899C5.60129 15.4578 5.58432 15.4395 5.56736 15.4043C5.58484 15.443 5.60078 15.4813 5.61517 15.519C5.6383 15.5587 5.65064 15.574 5.65373 15.6229C5.66915 15.6626 5.66452 15.7116 5.66452 15.7574C5.6599 15.788 5.65835 15.8461 5.64447 15.8721V15.9011" stroke="#EF2D28" stroke-width="0.029173"/>
<path d="M4.73281 16.0513V16.0668C4.7295 16.0284 4.73529 16.0469 4.75018 16.1223C4.77747 16.1533 4.84942 16.1622 4.904 16.1489C4.95362 16.1112 4.95362 16.0824 5.04293 16.0668C5.13225 16.0713 5.16698 16.0935 5.2166 16.1223C5.26883 16.1406 5.31256 16.1742 5.34065 16.2177C5.35802 16.2642 5.36795 16.2975 5.3084 16.3153C5.25663 16.3465 5.19691 16.3655 5.13473 16.3707C5.06526 16.3707 5.01316 16.364 4.98091 16.3995C4.93129 16.4439 4.93625 16.4705 4.93625 16.5504C4.91889 16.5748 4.9164 16.648 4.904 16.6768C4.86113 16.6965 4.81319 16.7057 4.76506 16.7034C4.7477 16.659 4.73033 16.5836 4.71792 16.5371C4.70552 16.4883 4.70304 16.4173 4.67078 16.384C4.64216 16.3459 4.60601 16.3129 4.5641 16.2864C4.53901 16.261 4.50629 16.2425 4.46982 16.2332C4.53185 16.2598 4.53929 16.2909 4.54673 16.3574C4.49463 16.3796 4.47975 16.3973 4.39291 16.3995C4.30608 16.3929 4.28623 16.3729 4.25398 16.3286C4.24653 16.3995 4.22172 16.4217 4.20436 16.4838C4.17459 16.5237 4.16218 16.5659 4.12993 16.6213C4.14233 16.6879 4.1721 16.6901 4.17458 16.7722C4.19443 16.8276 4.19443 16.8786 4.23661 16.9119C4.25646 16.9341 4.27134 16.9363 4.316 16.9385C4.22669 16.9385 4.1721 16.9296 4.11256 16.8986L3.98851 16.8143C3.93252 16.7766 3.86952 16.7481 3.80243 16.73C3.73049 16.73 3.67838 16.7234 3.64861 16.7589C3.60561 16.7884 3.57418 16.835 3.55433 16.8986C3.54193 16.9696 3.53449 17.0184 3.5717 17.0649C3.59651 17.1182 3.60396 17.1381 3.5717 17.2025C3.53449 17.2468 3.48239 17.2535 3.39803 17.2712C3.33849 17.2683 3.28721 17.2594 3.24421 17.2446" stroke="#EF2D28" stroke-width="0.0281498"/>
<path fill-rule="evenodd" clip-rule="evenodd" d="M13.0819 8.7973C14.9738 5.52248 16.2286 2.7319 15.8865 2.57393C15.5408 2.41434 13.7253 4.94598 11.8333 8.2208L13.0819 8.7973Z" fill="white" stroke="#EF2D28" stroke-width="0.0387692"/>
<path fill-rule="evenodd" clip-rule="evenodd" d="M12.957 8.74197C14.7822 5.58271 16.0392 2.91207 15.7655 2.7857C15.4889 2.65802 13.7833 5.12151 11.9581 8.28076" fill="white"/>
<path d="M12.957 8.74197C14.7822 5.58271 16.0392 2.91207 15.7655 2.7857C15.4889 2.65802 13.7833 5.12151 11.9581 8.28076" stroke="#EF2D28" stroke-width="0.0340592"/>
<path fill-rule="evenodd" clip-rule="evenodd" d="M12.6434 7.09385C12.4212 7.46305 12.1857 7.88606 11.958 8.2802L12.9597 8.7427C13.1874 8.34856 13.4369 7.93207 13.6451 7.55635L12.6434 7.09385Z" fill="white" stroke="#EF2D28" stroke-width="0.0386549"/>
<path fill-rule="evenodd" clip-rule="evenodd" d="M12.7306 7.22148C12.5072 7.59265 12.3537 7.87377 12.1249 8.26988L12.8726 8.61513C13.1003 8.22099 13.2702 7.94244 13.4783 7.56673L12.7306 7.22148Z" fill="white" stroke="#EF2D28" stroke-width="0.0386549"/>
<path fill-rule="evenodd" clip-rule="evenodd" d="M13.2739 7.64962L12.7731 7.41837L12.3291 8.18693L12.8299 8.41818L13.2739 7.64962ZM13.2739 7.64962L12.3291 8.18693L13.2739 7.64962ZM12.8299 8.41818L12.7731 7.41837L12.8299 8.41818ZM15.5327 3.73981L15.0319 3.50856L15.5327 3.73981Z" fill="white"/>
<path d="M13.2739 7.64962L12.7731 7.41837M13.2739 7.64962L12.8299 8.41818M13.2739 7.64962L12.3291 8.18693M12.7731 7.41837L12.3291 8.18693M12.7731 7.41837L12.8299 8.41818M12.3291 8.18693L12.8299 8.41818M15.5327 3.73981L15.0319 3.50856" stroke="#EF2D28" stroke-width="0.0386549"/>
<path d="M15.5298 3.37622C15.4528 3.39567 15.3763 3.35657 15.359 3.28889C15.3416 3.2212 15.3899 3.15056 15.4669 3.13111C15.5438 3.11166 15.6203 3.15076 15.6376 3.21844C15.655 3.28613 15.6067 3.35677 15.5298 3.37622Z" fill="#EF0000" stroke="#EF2D28" stroke-width="0.0500864"/>
<path fill-rule="evenodd" clip-rule="evenodd" d="M12.3405 12.4949C16.6066 16.6789 18.4266 17.2075 17.5709 17.5452C16.7153 17.8829 13.9688 15.723 11.1114 12.8567C8.25404 9.99036 6.50376 7.43727 7.35938 7.09956C8.21501 6.76185 7.80165 8.04857 12.3405 12.4949Z" fill="white" stroke="#EF2D28" stroke-width="0.0510375"/>
<path fill-rule="evenodd" clip-rule="evenodd" d="M15.9262 15.5394L14.4302 15.932C15.8369 17.2694 17.4198 17.8173 17.8589 17.5821C18.2981 17.347 17.0675 16.797 15.9237 15.5416L15.9262 15.5394Z" fill="white" stroke="#EF2D28" stroke-width="0.0281498"/>
<path fill-rule="evenodd" clip-rule="evenodd" d="M15.9269 15.6827L14.6943 15.9962C16.0646 17.2822 17.4204 17.6469 17.7709 17.4891C18.1237 17.3334 17.0386 16.8919 15.9269 15.6827Z" fill="white" stroke="#EF2D28" stroke-width="0.0295141"/>
<path d="M11.3445 12.3037C11.348 12.3239 11.3585 12.4139 11.3672 12.4496C11.3672 12.4992 11.3724 12.5365 11.3777 12.5753C11.3917 12.6094 11.3899 12.6404 11.4318 12.6529C11.4513 12.6838 11.4822 12.7079 11.5192 12.7211C11.5528 12.745 11.5898 12.7648 11.6293 12.7801C11.6707 12.7956 11.7167 12.7989 11.7603 12.7894C11.7964 12.7646 11.8291 12.7418 11.8582 12.7211C11.8652 12.6901 11.8722 12.6451 11.8809 12.6141C11.8673 12.6555 11.8597 12.6982 11.8582 12.7413C11.8617 12.7879 11.8809 12.8096 11.9019 12.8468" stroke="#EF2D28" stroke-width="0.0296388"/>
<path d="M11.7413 12.9533L11.7518 12.944C11.7256 12.9673 11.7361 12.9564 11.7955 12.9238C11.8363 12.9073 11.8834 12.8949 11.937 12.8866H12.0908C12.1502 12.8866 12.1904 12.8944 12.2323 12.9052C12.2638 12.9331 12.3092 12.9487 12.3424 12.9735C12.3719 12.9933 12.3943 13.0202 12.407 13.0511C12.4367 13.0775 12.456 13.1178 12.4839 13.138C12.4961 13.183 12.5206 13.1814 12.5381 13.2156C12.4857 13.2187 12.4455 13.2249 12.4175 13.2544C12.3721 13.2745 12.456 13.2342 12.4734 13.2156C12.5084 13.2063 12.5171 13.1969 12.5713 13.1969C12.6202 13.1814 12.6516 13.2078 12.7023 13.2156C12.732 13.2311 12.7408 13.2357 12.7792 13.2357" stroke="#EF2D28" stroke-width="0.0296388"/>
<path d="M12.3296 13.4487C12.3523 13.4487 12.4536 13.4657 12.4938 13.4487C12.5393 13.4378 12.5637 13.4176 12.5917 13.3804C12.6057 13.354 12.5917 13.427 12.5917 13.458C12.5969 13.5154 12.6161 13.5154 12.6476 13.5542C12.679 13.5728 12.7122 13.5976 12.7454 13.6132C12.7746 13.6343 12.8077 13.6506 12.8433 13.6613C12.8806 13.6747 12.9132 13.6908 12.9411 13.7094C12.9778 13.7326 12.9761 13.7606 12.997 13.7978C12.9918 13.8444 12.9831 13.8723 12.9534 13.894C12.9394 13.9266 12.9114 13.9592 12.887 13.9809C12.8608 14.0275 12.8293 14.0477 12.8974 14.0585C12.9359 14.074 12.9569 14.0616 12.997 14.0585" stroke="#EF2D28" stroke-width="0.0296388"/>
<path d="M13.0222 14.1249C13.0502 14.1187 13.1445 14.0907 13.1865 14.0768H13.3402C13.3979 14.0814 13.4101 14.097 13.459 14.1156C13.4922 14.1451 13.5132 14.1652 13.5586 14.1839C13.5813 14.2102 13.6285 14.2568 13.646 14.2909C13.6602 14.3311 13.6673 14.373 13.667 14.4151C13.667 14.4725 13.6495 14.4833 13.646 14.533C13.6339 14.5757 13.6112 14.6155 13.5796 14.6494C13.5761 14.6597 13.5691 14.6659 13.5586 14.668" stroke="#EF2D28" stroke-width="0.0296388"/>
<path d="M13.55 14.7945C13.555 14.7945 13.5649 14.819 13.5811 14.8398C13.617 14.8766 13.6208 14.879 13.6741 14.879C13.7237 14.8766 13.7175 14.8594 13.7523 14.8484C13.7684 14.8239 13.7882 14.8043 13.8068 14.7712C13.8192 14.7516 13.8304 14.721 13.844 14.7027C13.8589 14.6794 13.8763 14.6622 13.8912 14.6414C13.9061 14.6353 13.911 14.6292 13.9309 14.6255C13.8862 14.6328 13.8813 14.6488 13.8527 14.672L13.8143 14.7406C13.8093 14.7737 13.7994 14.7994 13.7981 14.8398C13.7981 14.8827 13.7981 14.9121 13.8143 14.9476C13.8329 14.966 13.8453 14.9856 13.8689 15.0015C13.8884 15.0203 13.9063 15.0408 13.9222 15.0628L13.9929 15.1081C14.0152 15.1216 14.0413 15.135 14.0773 15.1387C14.1232 15.135 14.1368 15.1228 14.1703 15.1081C14.2001 15.0873 14.2224 15.0738 14.2485 15.0542C14.2698 15.0368 14.2883 15.0161 14.303 14.993C14.344 14.9832 14.3713 14.9868 14.3961 15.0089C14.417 15.0235 14.4351 15.0418 14.4494 15.0628C14.4618 15.0689 14.4841 15.0873 14.4966 15.0934" stroke="#EF2D28" stroke-width="0.0283512"/>
<path d="M14.3948 15.1059C14.3825 15.1105 14.3362 15.1426 14.3177 15.1533C14.3054 15.1946 14.2853 15.216 14.2792 15.2603C14.2699 15.3011 14.2663 15.3454 14.2684 15.3933C14.2792 15.4422 14.2992 15.4774 14.3177 15.5156C14.3486 15.537 14.364 15.5523 14.4041 15.5737C14.4411 15.5808 14.4828 15.5844 14.529 15.5844C14.5599 15.5935 14.6154 15.5981 14.6447 15.5844C14.6879 15.5782 14.7203 15.5614 14.7511 15.5461C14.7866 15.5263 14.8082 15.5064 14.8467 15.4881C14.8683 15.4616 14.894 15.433 14.9238 15.4024C14.9485 15.3703 14.9655 15.352 14.9824 15.3168C14.965 15.3556 14.949 15.3938 14.9346 15.4315C14.9115 15.4712 14.8992 15.4865 14.8961 15.5354C14.8807 15.5752 14.8853 15.6241 14.8853 15.67C14.8899 15.7005 14.8915 15.7586 14.9053 15.7846V15.8137" stroke="#EF2D28" stroke-width="0.029173"/>
<path d="M15.817 15.9763V15.9918C15.8203 15.9534 15.8145 15.9719 15.7996 16.0473C15.7723 16.0783 15.7004 16.0872 15.6458 16.0739C15.5962 16.0362 15.5962 16.0073 15.5069 15.9918C15.4176 15.9963 15.3828 16.0184 15.3332 16.0473C15.281 16.0656 15.2372 16.0992 15.2091 16.1426C15.1918 16.1892 15.1819 16.2225 15.2414 16.2402C15.2932 16.2715 15.3529 16.2905 15.4151 16.2957C15.4845 16.2957 15.5366 16.289 15.5689 16.3245C15.6185 16.3689 15.6136 16.3955 15.6136 16.4753C15.6309 16.4997 15.6334 16.5729 15.6458 16.6018C15.6887 16.6215 15.7366 16.6306 15.7847 16.6284C15.8021 16.584 15.8195 16.5086 15.8319 16.462C15.8443 16.4132 15.8468 16.3423 15.879 16.309C15.9076 16.2709 15.9438 16.2379 15.9857 16.2114C16.0108 16.186 16.0435 16.1675 16.08 16.1582C16.018 16.1848 16.0105 16.2158 16.0031 16.2824C16.0552 16.3046 16.0701 16.3223 16.1569 16.3245C16.2437 16.3179 16.2636 16.2979 16.2958 16.2535C16.3033 16.3245 16.3281 16.3467 16.3454 16.4088C16.3752 16.4487 16.3876 16.4909 16.4199 16.5463C16.4075 16.6129 16.3777 16.6151 16.3752 16.6971C16.3554 16.7526 16.3554 16.8036 16.3132 16.8369C16.2933 16.8591 16.2785 16.8613 16.2338 16.8635C16.3231 16.8635 16.3777 16.8546 16.4372 16.8236L16.5613 16.7393C16.6173 16.7016 16.6803 16.6731 16.7474 16.655C16.8193 16.655 16.8714 16.6484 16.9012 16.6838C16.9442 16.7134 16.9756 16.76 16.9955 16.8236C17.0079 16.8945 17.0153 16.9433 16.9781 16.9899C16.9533 17.0432 16.9458 17.0631 16.9781 17.1274C17.0153 17.1718 17.0674 17.1785 17.1518 17.1962C17.2113 17.1932 17.2626 17.1844 17.3056 17.1696" stroke="#EF2D28" stroke-width="0.0281498"/>
<path fill-rule="evenodd" clip-rule="evenodd" d="M7.46795 8.72229C5.57599 5.44747 4.32122 2.65689 4.66334 2.49892C5.00899 2.33933 6.82455 4.87097 8.71651 8.14579L7.46795 8.72229Z" fill="white" stroke="#EF2D28" stroke-width="0.0387692"/>
<path fill-rule="evenodd" clip-rule="evenodd" d="M7.5928 8.66695C5.76761 5.5077 4.51064 2.83706 4.78434 2.71068C5.06086 2.58301 6.76647 5.0465 8.59166 8.20575" fill="white"/>
<path d="M7.5928 8.66695C5.76761 5.5077 4.51064 2.83706 4.78434 2.71068C5.06086 2.58301 6.76647 5.0465 8.59166 8.20575" stroke="#EF2D28" stroke-width="0.0340592"/>
<path fill-rule="evenodd" clip-rule="evenodd" d="M7.90641 7.01884C8.12864 7.38804 8.36409 7.81105 8.59179 8.20518L7.59013 8.66768C7.36243 8.27355 7.11287 7.85705 6.90475 7.48134L7.90641 7.01884Z" fill="white" stroke="#EF2D28" stroke-width="0.0386549"/>
<path fill-rule="evenodd" clip-rule="evenodd" d="M7.81922 7.14647C8.04259 7.51764 8.19606 7.79876 8.4249 8.19487L7.67718 8.54011C7.44948 8.14598 7.27962 7.86743 7.07149 7.49172L7.81922 7.14647Z" fill="white" stroke="#EF2D28" stroke-width="0.0386549"/>
<path fill-rule="evenodd" clip-rule="evenodd" d="M7.27589 7.57461L7.77672 7.34336L8.22074 8.11192L7.7199 8.34317L7.27589 7.57461ZM7.27589 7.57461L8.22074 8.11192L7.27589 7.57461ZM7.7199 8.34317L7.77672 7.34336L7.7199 8.34317ZM5.01709 3.66479L5.51792 3.43354L5.01709 3.66479Z" fill="white"/>
<path d="M7.27589 7.57461L7.77672 7.34336M7.27589 7.57461L7.7199 8.34317M7.27589 7.57461L8.22074 8.11192M7.77672 7.34336L8.22074 8.11192M7.77672 7.34336L7.7199 8.34317M8.22074 8.11192L7.7199 8.34317M5.01709 3.66479L5.51792 3.43354" stroke="#EF2D28" stroke-width="0.0386549"/>
<path d="M5.02004 3.30121C5.097 3.32066 5.17346 3.28156 5.19083 3.21388C5.20819 3.14619 5.15989 3.07555 5.08294 3.0561C5.00599 3.03664 4.92952 3.07574 4.91216 3.14343C4.89479 3.21111 4.94309 3.28175 5.02004 3.30121Z" fill="#EF0000" stroke="#EF2D28" stroke-width="0.0500864"/>
<path fill-rule="evenodd" clip-rule="evenodd" d="M8.98084 7.05322C8.98084 9.80354 8.99738 10.8393 8.7956 10.9813C8.60374 11.1343 3.26807 10.9813 3.26807 11.7665C3.26807 12.5516 7.66098 13.3413 8.98084 13.3413C10.7407 13.3413 11.6195 12.5546 11.6172 10.9813V7.05544H8.98084V7.05322Z" fill="white" stroke="#EF2D28" stroke-width="0.0352129"/>
<path fill-rule="evenodd" clip-rule="evenodd" d="M8.98193 7.83832V8.2309C9.85412 8.36168 10.7446 8.36168 11.6168 8.2309V7.83832C10.7446 7.9691 9.85412 7.9691 8.98193 7.83832Z" fill="white" stroke="#EF2D28" stroke-width="0.0304956"/>
<path fill-rule="evenodd" clip-rule="evenodd" d="M8.98193 7.05316V7.44574C9.85412 7.57653 10.7446 7.57653 11.6168 7.44574V7.05316C10.7446 7.18394 9.85412 7.18394 8.98193 7.05316Z" fill="white" stroke="#EF2D28" stroke-width="0.0304956"/>
<path fill-rule="evenodd" clip-rule="evenodd" d="M8.98193 7.44574V7.83832C9.85412 7.96911 10.7446 7.96911 11.6168 7.83832V7.44574C10.7446 7.57652 9.85412 7.57652 8.98193 7.44574Z" fill="white" stroke="#EF2D28" stroke-width="0.0304956"/>
<path fill-rule="evenodd" clip-rule="evenodd" d="M8.98193 8.2309V8.62348C9.85412 8.75426 10.7446 8.75426 11.6168 8.62348V8.2309C10.7446 8.36168 9.85412 8.36168 8.98193 8.2309Z" fill="white" stroke="#EF2D28" stroke-width="0.0304956"/>
<path d="M9.10164 7.75291C9.16816 7.75291 9.22208 7.71491 9.22208 7.66805C9.22208 7.62118 9.16816 7.58319 9.10164 7.58319C9.03512 7.58319 8.9812 7.62118 8.9812 7.66805C8.9812 7.71491 9.03512 7.75291 9.10164 7.75291Z" fill="white" stroke="#EF2D28" stroke-width="0.0289101"/>
<path d="M9.58065 7.7952C9.64716 7.7952 9.70109 7.75721 9.70109 7.71035C9.70109 7.66348 9.64716 7.62549 9.58065 7.62549C9.51413 7.62549 9.46021 7.66348 9.46021 7.71035C9.46021 7.75721 9.51413 7.7952 9.58065 7.7952Z" fill="white" stroke="#EF2D28" stroke-width="0.0289101"/>
<path d="M10.0611 7.83836C10.1276 7.83836 10.1816 7.80036 10.1816 7.7535C10.1816 7.70663 10.1276 7.66864 10.0611 7.66864C9.9946 7.66864 9.94067 7.70663 9.94067 7.7535C9.94067 7.80036 9.9946 7.83836 10.0611 7.83836Z" fill="white" stroke="#EF2D28" stroke-width="0.0289101"/>
<path d="M10.5401 7.83836C10.6066 7.83836 10.6606 7.80036 10.6606 7.7535C10.6606 7.70663 10.6066 7.66864 10.5401 7.66864C10.4736 7.66864 10.4197 7.70663 10.4197 7.7535C10.4197 7.80036 10.4736 7.83836 10.5401 7.83836Z" fill="white" stroke="#EF2D28" stroke-width="0.0289101"/>
<path d="M11.0191 7.7952C11.0856 7.7952 11.1396 7.75721 11.1396 7.71035C11.1396 7.66348 11.0856 7.62549 11.0191 7.62549C10.9526 7.62549 10.8987 7.66348 10.8987 7.71035C10.8987 7.75721 10.9526 7.7952 11.0191 7.7952Z" fill="white" stroke="#EF2D28" stroke-width="0.0289101"/>
<path d="M11.4996 7.75291C11.5661 7.75291 11.62 7.71491 11.62 7.66805C11.62 7.62118 11.5661 7.58319 11.4996 7.58319C11.4331 7.58319 11.3792 7.62118 11.3792 7.66805C11.3792 7.71491 11.4331 7.75291 11.4996 7.75291Z" fill="white" stroke="#EF2D28" stroke-width="0.0289101"/>
<path fill-rule="evenodd" clip-rule="evenodd" d="M8.98181 9.01617L11.6166 11.1388L8.98181 9.01617ZM9.2448 9.01617L11.6191 10.9015L9.2448 9.01617ZM9.59462 9.09602L11.6191 10.6686L9.59462 9.09602ZM9.85761 9.0938L11.6191 10.4313L9.85761 9.0938ZM10.1231 9.09602L11.6166 10.1961L10.1231 9.09602ZM10.3861 9.09602L11.6166 9.96104L10.3861 9.09602ZM10.649 9.09602L11.6166 9.72372L10.649 9.09602ZM10.917 9.09602L11.6216 9.56624L10.917 9.09602ZM11.1775 9.09602L11.6191 9.41098L11.1775 9.09602ZM11.443 9.09602L11.6166 9.25128L11.443 9.09602ZM8.98181 9.25128L11.6166 11.3761L8.98181 9.25128ZM11.6166 9.01839L8.71387 11.3739L11.6166 9.01839ZM11.3512 9.01617L8.80318 11.0612L11.3512 9.01617ZM11.0013 9.09602L8.97933 10.6664L11.0013 9.09602ZM10.7359 9.09602L8.97933 10.4313L10.7359 9.09602ZM10.4754 9.09602L8.98181 10.1961L10.4754 9.09602ZM10.2124 9.09602L8.98181 9.96104L10.2124 9.09602ZM9.9494 9.09602L8.98181 9.72372L9.9494 9.09602ZM9.68146 9.09602L8.97933 9.56624L9.68146 9.09602ZM9.41847 9.09602L8.97933 9.41098L9.41847 9.09602ZM9.153 9.09602L8.97933 9.25128L9.153 9.09602ZM11.6166 9.25128L8.71387 11.6135L11.6166 9.25128ZM11.6166 9.49083L8.71387 11.8463L11.6166 9.49083ZM11.6166 9.72372L8.71387 12.0814L11.6166 9.72372ZM11.6166 9.95882L8.71387 12.321L11.6166 9.95882ZM11.6166 10.1984L8.71387 12.5539L11.6166 10.1984ZM11.6166 10.4313L8.71387 12.789L11.6166 10.4313ZM11.6166 10.6664L8.71387 13.0241L11.6166 10.6664ZM11.6166 10.9037L8.71387 13.2614L11.6166 10.9037ZM11.6166 11.1388L8.89002 13.3391L11.6166 11.1388ZM11.6166 11.3739L9.15548 13.3391L11.6166 11.3739ZM11.5273 11.6889L9.59214 13.2614L11.5273 11.6889ZM11.443 12.0016L9.86009 13.2592L11.443 12.0016ZM11.2668 12.3942L10.4729 13.0219L11.2668 12.3942ZM8.98181 9.48639L11.5298 11.5292L8.98181 9.48639ZM8.98181 9.7215L11.5298 11.7665L8.98181 9.7215ZM8.98181 9.96104L11.443 11.924L8.98181 9.96104ZM8.98181 10.1939L11.443 12.1613L8.98181 10.1939ZM8.98181 10.4313L11.3537 12.3166L8.98181 10.4313ZM8.8925 10.5887L11.2668 12.474L8.8925 10.5887ZM8.8925 10.8261L11.0907 12.5561L8.8925 10.8261ZM8.80566 10.9813L11.0038 12.7114L8.80566 10.9813ZM8.71387 11.1366L10.8227 12.7868L8.71387 11.1366ZM8.71387 11.3717L10.7359 12.9443L8.71387 11.3717ZM8.71387 11.609L10.4754 13.0219L8.71387 11.609Z" fill="white"/>
<path d="M8.98181 9.01617L11.6166 11.1388L8.89002 13.3391M9.2448 9.01617L11.6191 10.9015M9.59462 9.09602L11.6191 10.6686M9.85761 9.0938L11.6191 10.4313M10.1231 9.09602L11.6166 10.1961M10.3861 9.09602L11.6166 9.96104M10.649 9.09602L11.6166 9.72372L8.71387 12.0814M10.917 9.09602L11.6216 9.56624M11.1775 9.09602L11.6191 9.41098M11.443 9.09602L11.6166 9.25128L8.71387 11.6135M8.98181 9.25128L11.6166 11.3761M11.6166 9.01839L8.71387 11.3739M11.3512 9.01617L8.80318 11.0612M11.0013 9.09602L8.97933 10.6664M10.7359 9.09602L8.97933 10.4313M10.4754 9.09602L8.98181 10.1961M10.2124 9.09602L8.98181 9.96104L11.443 11.924M9.9494 9.09602L8.98181 9.72372M9.68146 9.09602L8.97933 9.56624M9.41847 9.09602L8.97933 9.41098M9.153 9.09602L8.97933 9.25128M11.6166 9.49083L8.71387 11.8463M11.6166 9.95882L8.71387 12.321M11.6166 10.1984L8.71387 12.5539M11.6166 10.4313L8.71387 12.789M11.6166 10.6664L8.71387 13.0241M11.6166 10.9037L8.71387 13.2614M11.6166 11.3739L9.15548 13.3391M11.5273 11.6889L9.59214 13.2614M11.443 12.0016L9.86009 13.2592M11.2668 12.3942L10.4729 13.0219M8.98181 9.48639L11.5298 11.5292M8.98181 9.7215L11.5298 11.7665M8.98181 10.1939L11.443 12.1613M8.98181 10.4313L11.3537 12.3166M8.8925 10.5887L11.2668 12.474M8.8925 10.8261L11.0907 12.5561M8.80566 10.9813L11.0038 12.7114M8.71387 11.1366L10.8227 12.7868M8.71387 11.3717L10.7359 12.9443M8.71387 11.609L10.4754 13.0219" stroke="#EF2D28" stroke-width="0.0304956"/>
<path fill-rule="evenodd" clip-rule="evenodd" d="M8.98193 8.62573V9.01831C9.85412 9.1491 10.7446 9.1491 11.6168 9.01831V8.62573C10.7446 8.75652 9.85412 8.75652 8.98193 8.62573Z" fill="white" stroke="#EF2D28" stroke-width="0.0304956"/>
<path fill-rule="evenodd" clip-rule="evenodd" d="M8.71635 11.8464L10.2992 13.104L8.71635 11.8464ZM8.71635 12.0837L10.1231 13.1816L8.71635 12.0837ZM8.71635 12.3166L9.94692 13.2615L8.71635 12.3166ZM8.71635 12.5517L9.5971 13.2615L8.71635 12.5517ZM8.71387 12.789L9.41847 13.3391L8.71387 12.789ZM8.71387 13.0241L9.153 13.3391L8.71387 13.0241Z" fill="white"/>
<path d="M8.71635 11.8464L10.2992 13.104M8.71635 12.0837L10.1231 13.1816M8.71635 12.3166L9.94692 13.2615M8.71635 12.5517L9.5971 13.2615M8.71387 12.789L9.41847 13.3391M8.71387 13.0241L9.153 13.3391" stroke="#EF2D28" stroke-width="0.0304956"/>
<path d="M9.10164 8.9329C9.16816 8.9329 9.22208 8.89491 9.22208 8.84804C9.22208 8.80118 9.16816 8.76318 9.10164 8.76318C9.03512 8.76318 8.9812 8.80118 8.9812 8.84804C8.9812 8.89491 9.03512 8.9329 9.10164 8.9329Z" fill="white" stroke="#EF2D28" stroke-width="0.0289101"/>
<path d="M9.58065 8.9752C9.64716 8.9752 9.70109 8.9372 9.70109 8.89034C9.70109 8.84347 9.64716 8.80548 9.58065 8.80548C9.51413 8.80548 9.46021 8.84347 9.46021 8.89034C9.46021 8.9372 9.51413 8.9752 9.58065 8.9752Z" fill="white" stroke="#EF2D28" stroke-width="0.0289101"/>
<path d="M10.0611 9.01609C10.1276 9.01609 10.1816 8.9781 10.1816 8.93123C10.1816 8.88437 10.1276 8.84637 10.0611 8.84637C9.9946 8.84637 9.94067 8.88437 9.94067 8.93123C9.94067 8.9781 9.9946 9.01609 10.0611 9.01609Z" fill="white" stroke="#EF2D28" stroke-width="0.0289101"/>
<path d="M10.5401 9.01609C10.6066 9.01609 10.6606 8.9781 10.6606 8.93123C10.6606 8.88437 10.6066 8.84637 10.5401 8.84637C10.4736 8.84637 10.4197 8.88437 10.4197 8.93123C10.4197 8.9781 10.4736 9.01609 10.5401 9.01609Z" fill="white" stroke="#EF2D28" stroke-width="0.0289101"/>
<path d="M11.0191 8.9752C11.0856 8.9752 11.1396 8.9372 11.1396 8.89034C11.1396 8.84347 11.0856 8.80548 11.0191 8.80548C10.9526 8.80548 10.8987 8.84347 10.8987 8.89034C10.8987 8.9372 10.9526 8.9752 11.0191 8.9752Z" fill="white" stroke="#EF2D28" stroke-width="0.0289101"/>
<path d="M11.4996 8.9329C11.5661 8.9329 11.62 8.89491 11.62 8.84804C11.62 8.80118 11.5661 8.76318 11.4996 8.76318C11.4331 8.76318 11.3792 8.80118 11.3792 8.84804C11.3792 8.89491 11.4331 8.9329 11.4996 8.9329Z" fill="white" stroke="#EF2D28" stroke-width="0.0289101"/>
<path fill-rule="evenodd" clip-rule="evenodd" d="M5.20086 12.7113L8.36413 11.0612L5.20086 12.7113ZM5.0247 12.6315L8.01431 11.0612L5.0247 12.6315ZM4.93787 12.474L7.66201 11.0612L4.93787 12.474ZM4.84855 12.3188L7.22287 11.0612L4.84855 12.3188ZM4.66992 12.1613L6.86809 11.0612L4.66992 12.1613ZM4.75924 11.9262L6.2528 11.1388L4.75924 11.9262ZM4.66992 11.7665L5.81118 11.1388L4.66992 11.7665ZM4.66992 11.5314L5.46384 11.1388L4.66992 11.5314ZM5.46384 12.789L8.45097 11.2164L5.46384 12.789ZM5.72931 12.8666L8.54028 11.3739L5.72931 12.8666ZM5.9923 12.9465L8.6296 11.5314L5.9923 12.9465ZM6.25528 13.0241L8.45345 11.8463L6.25528 13.0241ZM6.6051 13.0241L8.54028 12.0038L6.6051 13.0241ZM6.86809 13.1039L8.5378 12.2389L6.86809 13.1039ZM7.13107 13.1816L8.45097 12.474L7.13107 13.1816ZM7.48338 13.1838L8.5378 12.6315L7.48338 13.1838ZM7.83568 13.2614L8.54028 12.8666L7.83568 13.2614ZM8.19294 13.2614L8.63208 13.0263L8.19294 13.2614Z" fill="white"/>
<path d="M5.20086 12.7113L8.36413 11.0612M5.0247 12.6315L8.01431 11.0612M4.93787 12.474L7.66201 11.0612M4.84855 12.3188L7.22287 11.0612M4.66992 12.1613L6.86809 11.0612M4.75924 11.9262L6.2528 11.1388M4.66992 11.7665L5.81118 11.1388M4.66992 11.5314L5.46384 11.1388M5.46384 12.789L8.45097 11.2164M5.72931 12.8666L8.54028 11.3739M5.9923 12.9465L8.6296 11.5314M6.25528 13.0241L8.45345 11.8463M6.6051 13.0241L8.54028 12.0038M6.86809 13.1039L8.5378 12.2389M7.13107 13.1816L8.45097 12.474M7.48338 13.1838L8.5378 12.6315M7.83568 13.2614L8.54028 12.8666M8.19294 13.2614L8.63208 13.0263" stroke="#EF2D28" stroke-width="0.0304956"/>
<path fill-rule="evenodd" clip-rule="evenodd" d="M8.80347 10.9835H8.36433C8.21804 11.7632 8.21804 12.5593 8.36433 13.339H8.80347C8.65718 12.5593 8.65718 11.7632 8.80347 10.9835Z" fill="white" stroke="#EF2D28" stroke-width="0.0304956"/>
<path fill-rule="evenodd" clip-rule="evenodd" d="M3.61792 12.0814L4.67234 11.2963L3.61792 12.0814ZM3.61792 11.5314L4.67234 12.474L3.61792 11.5314Z" fill="white"/>
<path d="M3.61792 12.0814L4.67234 11.2963M3.61792 11.5314L4.67234 12.474" stroke="#EF2D28" stroke-width="0.0304956"/>
<path fill-rule="evenodd" clip-rule="evenodd" d="M5.20093 11.1372L4.67297 11.2159C4.55587 11.7145 4.55587 12.1332 4.67297 12.6318L5.20093 12.7878C5.08382 12.2905 5.08382 11.6359 5.20093 11.1372Z" fill="white" stroke="#EF2D28" stroke-width="0.0217069"/>
<path fill-rule="evenodd" clip-rule="evenodd" d="M11.617 7.20849V6.81146C11.2192 6.8159 10.9553 6.57857 10.9553 6.34125L9.6394 6.34347C9.6394 6.57857 9.37919 6.8159 8.98145 6.8159V7.20849H11.617Z" fill="white" stroke="#EF2D28" stroke-width="0.0373282"/>
<path fill-rule="evenodd" clip-rule="evenodd" d="M9.7312 5.8733H10.8625V6.34573H9.7312V5.8733ZM9.82796 5.40086H10.7683V5.8733H9.82548L9.82796 5.40086ZM9.82796 4.93065H10.7683V5.40086H9.82548L9.82796 4.93065ZM9.92224 4.30074H10.674V4.93065H9.92224V4.30074ZM9.88999 3.75067H10.7087V4.30074H9.88999V3.75067Z" fill="white"/>
<path d="M10.7683 5.40086H9.82796L9.82548 5.8733H10.7683V5.40086ZM10.7683 5.40086V4.93065H9.82796L9.82548 5.40086H10.7683ZM9.7312 5.8733H10.8625V6.34573H9.7312V5.8733ZM9.92224 4.30074H10.674V4.93065H9.92224V4.30074ZM9.88999 3.75067H10.7087V4.30074H9.88999V3.75067Z" stroke="#EF2D28" stroke-width="0.0328414"/>
<path d="M10.3417 3.98797C10.9435 3.98797 11.4313 3.65332 11.4313 3.24051C11.4313 2.82769 10.9435 2.49304 10.3417 2.49304C9.74 2.49304 9.2522 2.82769 9.2522 3.24051C9.2522 3.65332 9.74 3.98797 10.3417 3.98797Z" fill="white" stroke="#EF2D28" stroke-width="0.0309992"/>
<path fill-rule="evenodd" clip-rule="evenodd" d="M10.8878 3.20056C10.8878 3.40684 11.1595 3.75063 11.1595 3.75063C10.9621 3.88814 10.6417 3.98795 10.3417 3.98795C10.0418 3.98795 9.66749 3.93029 9.52393 3.75063C9.52393 3.75063 9.79567 3.40906 9.79567 3.20278C9.79567 2.99651 9.52393 2.73035 9.52393 2.73035C9.76219 2.57962 10.0491 2.49739 10.3443 2.49524C10.6417 2.49524 10.9596 2.59505 11.1595 2.73035C11.1595 2.73035 10.8878 2.99651 10.8878 3.20278V3.20056Z" fill="white" stroke="#EF2D28" stroke-width="0.0309992"/>
<path fill-rule="evenodd" clip-rule="evenodd" d="M10.7056 3.20056C10.7056 3.40684 10.9774 3.83048 10.9774 3.83048C10.78 3.96356 10.6441 3.98574 10.3416 3.98574C10.0391 3.98574 9.84937 4.01013 9.70581 3.83048C9.70581 3.83048 9.97755 3.40906 9.97755 3.20056C9.97755 2.99207 9.70581 2.6505 9.70581 2.6505C9.90321 2.51742 10.0391 2.49524 10.3416 2.49524C10.6415 2.49524 10.78 2.51742 10.9774 2.6505C10.9774 2.6505 10.7056 2.99429 10.7056 3.20056Z" fill="white" stroke="#EF2D28" stroke-width="0.0309992"/>
<path d="M9.25221 3.51331C9.40229 3.51331 9.52396 3.40805 9.52396 3.2782C9.52396 3.14835 9.40229 3.04309 9.25221 3.04309C9.10213 3.04309 8.98047 3.14835 8.98047 3.2782C8.98047 3.40805 9.10213 3.51331 9.25221 3.51331Z" fill="white" stroke="#EF2D28" stroke-width="0.0309992"/>
<path d="M11.4329 3.51331C11.583 3.51331 11.7046 3.40805 11.7046 3.2782C11.7046 3.14835 11.583 3.04309 11.4329 3.04309C11.2828 3.04309 11.1611 3.14835 11.1611 3.2782C11.1611 3.40805 11.2828 3.51331 11.4329 3.51331Z" fill="white" stroke="#EF2D28" stroke-width="0.0309992"/>
<path d="M10.3438 3.51331C10.4938 3.51331 10.6155 3.40805 10.6155 3.2782C10.6155 3.14835 10.4938 3.04309 10.3438 3.04309C10.1937 3.04309 10.072 3.14835 10.072 3.2782C10.072 3.40805 10.1937 3.51331 10.3438 3.51331Z" fill="white" stroke="#EF2D28" stroke-width="0.0309992"/>
<path d="M10.3438 2.72815C10.4938 2.72815 10.6155 2.62289 10.6155 2.49304C10.6155 2.3632 10.4938 2.25793 10.3438 2.25793C10.1937 2.25793 10.072 2.3632 10.072 2.49304C10.072 2.62289 10.1937 2.72815 10.3438 2.72815Z" fill="white" stroke="#EF2D28" stroke-width="0.0309992"/>
<path d="M9.54707 7.2085C9.70251 7.2085 9.82852 7.10324 9.82852 6.97339C9.82852 6.84354 9.70251 6.73828 9.54707 6.73828C9.39163 6.73828 9.26562 6.84354 9.26562 6.97339C9.26562 7.10324 9.39163 7.2085 9.54707 7.2085Z" fill="white" stroke="#EF2D28" stroke-width="0.0315479"/>
<path d="M11.0507 7.2085C11.2062 7.2085 11.3322 7.10324 11.3322 6.97339C11.3322 6.84354 11.2062 6.73828 11.0507 6.73828C10.8953 6.73828 10.7693 6.84354 10.7693 6.97339C10.7693 7.10324 10.8953 7.2085 11.0507 7.2085Z" fill="white" stroke="#EF2D28" stroke-width="0.0315479"/>
<path fill-rule="evenodd" clip-rule="evenodd" d="M9.63989 6.34351H10.9569L10.2984 7.05105L9.63989 6.34351Z" fill="white" stroke="#EF2D28" stroke-width="0.0315479"/>
<path d="M10.2974 7.2069C10.5047 7.2069 10.6727 7.06655 10.6727 6.89343C10.6727 6.7203 10.5047 6.57996 10.2974 6.57996C10.0901 6.57996 9.92212 6.7203 9.92212 6.89343C9.92212 7.06655 10.0901 7.2069 10.2974 7.2069Z" fill="white" stroke="#EF2D28" stroke-width="0.0420643"/>
<path d="M10.7703 9.24371H8.96166C8.90274 9.24371 8.85498 9.28045 8.85498 9.32578V9.63408C8.85498 9.6794 8.90274 9.71615 8.96166 9.71615H10.7703C10.8292 9.71615 10.877 9.6794 10.877 9.63408V9.32578C10.877 9.28045 10.8292 9.24371 10.7703 9.24371Z" fill="white" stroke="#EF2D28" stroke-width="0.0281498"/>
<path fill-rule="evenodd" clip-rule="evenodd" d="M11.4924 8.85115C11.2492 8.85115 11.0532 9.03524 11.0532 9.26148V9.61858C11.0516 9.67138 11.0617 9.72394 11.0829 9.77323C11.1042 9.82252 11.1361 9.86755 11.177 9.90572C11.2178 9.94388 11.2667 9.97442 11.3209 9.99557C11.375 10.0167 11.4333 10.028 11.4924 10.0289C11.5515 10.028 11.6098 10.0167 11.6639 9.99557C11.718 9.97442 11.7669 9.94388 11.8078 9.90572C11.8486 9.86755 11.8806 9.82252 11.9018 9.77323C11.9231 9.72394 11.9332 9.67138 11.9315 9.61858V9.2637C11.9335 9.21071 11.9237 9.15791 11.9026 9.10836C11.8815 9.05882 11.8496 9.01352 11.8087 8.97512C11.7678 8.93671 11.7188 8.90597 11.6645 8.88469C11.6102 8.8634 11.5517 8.852 11.4924 8.85115ZM11.4924 9.00641C11.346 9.00641 11.2294 9.15501 11.2294 9.33689V9.54317C11.2294 9.72504 11.346 9.87143 11.4924 9.87143C11.6388 9.87143 11.7554 9.72504 11.7554 9.54317V9.33689C11.7554 9.15501 11.6388 9.00863 11.4924 9.00863V9.00641ZM9.20738 8.92878C9.05852 8.92878 8.94439 9.07517 8.94439 9.25926V9.62301C8.94439 9.80489 9.061 9.95128 9.20738 9.95128C9.35376 9.95128 9.47036 9.80489 9.47036 9.62301V9.25704C9.47036 9.07295 9.35376 8.92656 9.20738 8.92656V8.92878ZM9.20738 8.77352C9.1483 8.77438 9.09001 8.78571 9.03586 8.80686C8.98172 8.828 8.93281 8.85854 8.89197 8.89671C8.85112 8.93487 8.81915 8.9799 8.79792 9.02919C8.77668 9.07848 8.76659 9.13105 8.76824 9.18385V9.69843C8.76659 9.75122 8.77668 9.80379 8.79792 9.85308C8.81915 9.90237 8.85112 9.9474 8.89197 9.98557C8.93281 10.0237 8.98172 10.0543 9.03586 10.0754C9.09001 10.0966 9.1483 10.1079 9.20738 10.1088C9.45051 10.1088 9.64651 9.92466 9.64651 9.69843V9.18385C9.6485 9.13087 9.63866 9.07806 9.61757 9.02851C9.59649 8.97897 9.56457 8.93367 9.52369 8.89527C9.48282 8.85686 9.43379 8.82612 9.37948 8.80484C9.32517 8.78356 9.26667 8.77216 9.20738 8.7713V8.77352Z" fill="white" stroke="#EF2D28" stroke-width="0.0281498"/>
<path fill-rule="evenodd" clip-rule="evenodd" d="M8.50279 9.08625C8.35641 9.08625 8.2398 9.23264 8.2398 9.41451V9.50102C8.2398 9.68289 8.35641 9.82928 8.50279 9.82928C8.65165 9.82928 8.76825 9.68289 8.76825 9.50102V9.41451C8.76825 9.23264 8.64917 9.08625 8.50279 9.08625ZM8.50279 8.93099C8.44371 8.93185 8.38542 8.94318 8.33127 8.96433C8.27713 8.98547 8.22822 9.01601 8.18738 9.05418C8.14653 9.09234 8.11456 9.13738 8.09333 9.18666C8.07209 9.23595 8.062 9.28852 8.06365 9.34132V9.57643C8.062 9.62923 8.07209 9.68179 8.09333 9.73108C8.11456 9.78037 8.14653 9.8254 8.18738 9.86357C8.22822 9.90174 8.27713 9.93227 8.33127 9.95342C8.38542 9.97457 8.44371 9.9859 8.50279 9.98676C8.74593 9.98676 8.94441 9.80266 8.94441 9.57643V9.34132C8.94639 9.28815 8.93647 9.23517 8.91523 9.18548C8.89399 9.13578 8.86186 9.09039 8.82072 9.05196C8.77958 9.01352 8.73026 8.98283 8.67566 8.96167C8.62106 8.94052 8.56229 8.92933 8.50279 8.92877V8.93099Z" fill="white" stroke="#EF2D28" stroke-width="0.0281498"/>
<path fill-rule="evenodd" clip-rule="evenodd" d="M7.45137 8.8693C7.18342 8.8693 6.97353 9.0329 6.97353 9.23616V9.64517C6.97353 9.84596 7.18789 10.012 7.45137 10.012C7.71485 10.012 7.92474 9.84844 7.92474 9.64269V9.23616C7.92474 9.0329 7.71038 8.8693 7.45137 8.8693ZM7.45137 8.69578C7.34504 8.69642 7.24 8.70876 7.14232 8.7321C7.04465 8.75543 6.95629 8.78929 6.88235 8.83171C6.80842 8.87413 6.75039 8.92427 6.71161 8.97923C6.67283 9.03419 6.65409 9.09287 6.65646 9.15188V9.72697C6.65288 9.78619 6.67059 9.8452 6.70855 9.90058C6.74651 9.95595 6.80395 10.0066 6.87753 10.0495C6.95111 10.0924 7.03936 10.1268 7.13711 10.1506C7.23487 10.1743 7.34018 10.1871 7.4469 10.188C7.88902 10.188 8.24182 9.98229 8.24182 9.72697V9.15188C8.24478 9.09287 8.22663 9.03413 8.1884 8.97904C8.15017 8.92395 8.09263 8.87363 8.01911 8.83097C7.94559 8.78832 7.85755 8.75419 7.76009 8.73056C7.66264 8.70692 7.5577 8.69426 7.45137 8.6933V8.69578Z" fill="white" stroke="#EF2D28" stroke-width="0.0299444"/>
<path fill-rule="evenodd" clip-rule="evenodd" d="M13.165 8.94693C12.897 8.94693 12.6872 9.11054 12.6872 9.3138V9.72281C12.6872 9.92359 12.9015 10.0897 13.165 10.0897C13.4285 10.0897 13.6384 9.92607 13.6384 9.72033V9.3138C13.6384 9.11054 13.424 8.94693 13.165 8.94693ZM13.165 8.77341C13.0587 8.77405 12.9536 8.7864 12.8559 8.80973C12.7583 8.83307 12.6699 8.86692 12.596 8.90935C12.522 8.95177 12.464 9.00191 12.4252 9.05687C12.3865 9.11183 12.3677 9.17051 12.3701 9.22952V9.80461C12.3665 9.86382 12.3842 9.92284 12.4222 9.97821C12.4601 10.0336 12.5176 10.0842 12.5912 10.1271C12.6647 10.17 12.753 10.2044 12.8507 10.2282C12.9485 10.252 13.0538 10.2647 13.1605 10.2657C13.6026 10.2657 13.9554 10.0599 13.9554 9.80461V9.22952C13.9584 9.17051 13.9402 9.11176 13.902 9.05668C13.8638 9.00159 13.8063 8.95126 13.7327 8.90861C13.6592 8.86596 13.5712 8.83182 13.4737 8.80819C13.3763 8.78456 13.2713 8.7719 13.165 8.77094V8.77341Z" fill="white" stroke="#EF2D28" stroke-width="0.0299444"/>
<path d="M12.6658 9.24371H11.7255C11.694 9.24371 11.6685 9.28045 11.6685 9.32578V9.63408C11.6685 9.6794 11.694 9.71615 11.7255 9.71615H12.6658C12.6973 9.71615 12.7229 9.6794 12.7229 9.63408V9.32578C12.7229 9.28045 12.6973 9.24371 12.6658 9.24371Z" fill="white" stroke="#EF2D28" stroke-width="0.0281498"/>
<path d="M11.284 9.16608H10.7332C10.7154 9.16608 10.7009 9.21473 10.7009 9.27476V9.68731C10.7009 9.74733 10.7154 9.79599 10.7332 9.79599H11.284C11.3018 9.79599 11.3162 9.74733 11.3162 9.68731V9.27476C11.3162 9.21473 11.3018 9.16608 11.284 9.16608Z" fill="white" stroke="#EF2D28" stroke-width="0.0281498"/>
<path d="M8.38357 9.16608H7.83279C7.81498 9.16608 7.80054 9.21473 7.80054 9.27476V9.68731C7.80054 9.74733 7.81498 9.79599 7.83279 9.79599H8.38357C8.40138 9.79599 8.41583 9.74733 8.41583 9.68731V9.27476C8.41583 9.21473 8.40138 9.16608 8.38357 9.16608Z" fill="white" stroke="#EF2D28" stroke-width="0.0281498"/>
<path d="M7.03155 9.08624H5.92998C5.89436 9.08624 5.86548 9.14682 5.86548 9.22154V9.73612C5.86548 9.81084 5.89436 9.87142 5.92998 9.87142H7.03155C7.06717 9.87142 7.09605 9.81084 7.09605 9.73612V9.22154C7.09605 9.14682 7.06717 9.08624 7.03155 9.08624Z" fill="white" stroke="#EF2D28" stroke-width="0.0281498"/>
<path d="M14.5961 9.16608H13.5764C13.5422 9.16608 13.5144 9.22665 13.5144 9.30137V9.81595C13.5144 9.89067 13.5422 9.95125 13.5764 9.95125H14.5961C14.6304 9.95125 14.6581 9.89067 14.6581 9.81595V9.30137C14.6581 9.22665 14.6304 9.16608 14.5961 9.16608Z" fill="white" stroke="#EF2D28" stroke-width="0.0281498"/>
</g>
</g>
<defs>
<clipPath id="clip0_26_493">
<rect width="80" height="60" fill="white"/>
</clipPath>
</defs>
</svg>
