<svg width="80" height="60" viewBox="0 0 80 60" fill="none" xmlns="http://www.w3.org/2000/svg">
<g clip-path="url(#clip0_26_217)">
<path d="M0 0H80V60H0V0Z" fill="#E70013"/>
<path d="M40.0001 14.9C36.0169 14.8834 32.1902 16.4499 29.3619 19.2547C26.5336 22.0595 24.9354 25.873 24.9188 29.8563C24.9023 33.8395 26.4687 37.6661 29.2735 40.4944C32.0784 43.3227 35.8919 44.9209 39.8751 44.9375C43.8583 44.9541 47.685 43.3876 50.5132 40.5828C53.3415 37.778 54.9398 33.9645 54.9563 29.9813C54.9729 25.998 53.4065 22.1714 50.6016 19.3431C47.7968 16.5148 43.9833 14.9166 40.0001 14.9ZM49.0001 36.625C47.5925 38.5291 45.6201 39.9405 43.3637 40.6582C41.1072 41.376 38.6819 41.3634 36.433 40.6224C34.1841 39.8815 32.2263 38.4498 30.8385 36.5313C29.4507 34.6128 28.7035 32.3053 28.7035 29.9375C28.7035 27.5697 29.4507 25.2622 30.8385 23.3437C32.2263 21.4252 34.1841 19.9935 36.433 19.2526C38.6819 18.5116 41.1072 18.4991 43.3637 19.2168C45.6201 19.9345 47.5925 21.3459 49.0001 23.25C47.7071 22.0855 46.1044 21.3208 44.3858 21.0484C42.6672 20.7761 40.9066 21.0077 39.3169 21.7153C37.7273 22.423 36.3769 23.5762 35.4291 25.0355C34.4814 26.4948 33.977 28.1975 33.977 29.9375C33.977 31.6775 34.4814 33.3802 35.4291 34.8395C36.3769 36.2988 37.7273 37.452 39.3169 38.1597C40.9066 38.8673 42.6672 39.0989 44.3858 38.8266C46.1044 38.5542 47.7071 37.7895 49.0001 36.625ZM48.4126 33.9125L43.7376 32.4L40.8501 36.375V31.4625L36.1751 29.9375L40.8501 28.4125V23.5L43.7376 27.475L48.4126 25.9625L45.5251 29.9375L48.4126 33.9125Z" fill="white"/>
</g>
<defs>
<clipPath id="clip0_26_217">
<rect width="80" height="60" fill="white"/>
</clipPath>
</defs>
</svg>
